<?xml version="1.0" encoding="UTF-8"?>
<svg version="1.1" xmlns="http://www.w3.org/2000/svg" width="1254" height="1254">
<path d="M0 0 C413.82 0 827.64 0 1254 0 C1254 413.82 1254 827.64 1254 1254 C840.18 1254 426.36 1254 0 1254 C0 840.18 0 426.36 0 0 Z " fill="#E9F0FC" transform="translate(0,0)"/>
<path d="M0 0 C413.82 0 827.64 0 1254 0 C1254 413.82 1254 827.64 1254 1254 C840.18 1254 426.36 1254 0 1254 C0 840.18 0 426.36 0 0 Z M151.31640625 157.359375 C145.41767245 163.56746926 140.2567268 170.2735038 135.2734375 177.22705078 C134.20306079 178.71728768 133.10467712 180.18735202 132 181.65234375 C126.15570527 189.56649286 121.63474345 198.34526451 117 207 C116.41863281 208.07765625 115.83726563 209.1553125 115.23828125 210.265625 C106.85349655 226.37497512 101.51129846 243.93063686 98.18969727 261.73095703 C97.80993575 263.76372581 97.41851766 265.79399665 97.02539062 267.82421875 C94.99013792 278.4913833 93.85033646 288.63374053 93.86577892 299.49564934 C93.86342669 300.6291552 93.86107446 301.76266106 93.85865095 302.93051559 C93.85198881 306.73248517 93.85241834 310.53442035 93.85282898 314.33639526 C93.8500749 317.0885378 93.84584016 319.84067764 93.8416875 322.59281838 C93.83238223 329.36605189 93.82844295 336.13927887 93.82616853 342.91251798 C93.82320094 351.02782049 93.81450013 359.14311439 93.80575425 367.25841237 C93.78492889 386.87503673 93.77444206 406.49166258 93.76562465 426.10829541 C93.76141439 435.39556742 93.75619283 444.68283879 93.75094012 453.97011026 C93.73304931 485.78397559 93.71805598 517.59784112 93.71061993 549.41171074 C93.71014517 551.40836859 93.70966929 553.40502644 93.70919226 555.40168429 C93.70895589 556.39181492 93.70871951 557.38194555 93.70847597 558.40208013 C93.70727482 563.41828129 93.70605936 568.43448244 93.70483398 573.45068359 C93.70459383 574.44615173 93.70435368 575.44161986 93.70410626 576.46725369 C93.69622014 608.71461217 93.67280282 640.96193377 93.64027804 673.20927616 C93.60592615 707.33070666 93.58626372 741.45211562 93.58297569 775.57356369 C93.58255818 779.32464799 93.58207862 783.07573228 93.58155251 786.82681656 C93.58142931 787.75038846 93.58130612 788.67396035 93.5811792 789.62551928 C93.57885358 804.44590103 93.56322913 819.26623975 93.54271066 834.08660621 C93.52238404 849.00603137 93.51700749 863.92540525 93.52648129 878.8448417 C93.53167015 887.69086733 93.52594369 896.53672134 93.50394662 905.38272203 C93.49032326 911.31337216 93.49161586 917.2439057 93.50434858 923.17455731 C93.51116987 926.53974032 93.50989033 929.90433712 93.49478849 933.2695304 C93.40227089 955.26878244 95.13125173 977.20281178 101.25 998.4375 C101.69714355 1000.0321106 101.69714355 1000.0321106 102.15332031 1001.65893555 C108.55213548 1023.80727474 118.40829342 1045.31480819 132 1064 C132.69480469 1064.96679688 133.38960937 1065.93359375 134.10546875 1066.9296875 C146.91800982 1084.39102666 161.62395667 1100.95566152 179 1114 C179.52239258 1114.39348633 180.04478516 1114.78697266 180.58300781 1115.19238281 C193.64341367 1124.96293717 207.43575677 1132.99661844 222.11425781 1140.0769043 C223.40197551 1140.70725911 224.68239238 1141.35269431 225.95605469 1142.01098633 C230.65194723 1144.43313277 235.37743735 1146.35513747 240.375 1148.0625 C241.12177002 1148.32071533 241.86854004 1148.57893066 242.63793945 1148.8449707 C268.98617355 1157.8927901 294.97203098 1160.45716658 322.71661377 1160.38768005 C325.46007087 1160.39020426 328.20351266 1160.39722254 330.94696212 1160.40399987 C336.87375 1160.41627617 342.80045862 1160.41761875 348.72725487 1160.41144943 C357.54131524 1160.40229956 366.35530323 1160.41043722 375.16935809 1160.42174067 C390.91905903 1160.44134276 406.66872696 1160.44376742 422.41843719 1160.43854547 C436.20427338 1160.43397728 449.99009654 1160.43460117 463.77593231 1160.44038582 C465.62959661 1160.44114271 467.4832609 1160.44189869 469.33692519 1160.44265376 C472.13069373 1160.44379904 474.92446226 1160.44494892 477.71823079 1160.44611301 C503.67064612 1160.45680814 529.62305713 1160.46155342 555.57547379 1160.45364285 C556.55246783 1160.45334567 557.52946187 1160.4530485 558.53606179 1160.45274232 C566.46846485 1160.45029372 574.40086786 1160.44768196 582.33327086 1160.44505819 C613.26500719 1160.43495831 644.19668921 1160.44331027 675.12841797 1160.46655273 C709.9327966 1160.49266325 744.73714254 1160.50546316 779.54153132 1160.49836498 C783.25728909 1160.49764899 786.97304685 1160.4969746 790.68880463 1160.49632454 C791.60362369 1160.49615473 792.51844275 1160.49598492 793.46098361 1160.49580997 C807.23005671 1160.49351345 820.99909932 1160.50145294 834.76816559 1160.51461601 C850.43918982 1160.52957122 866.11014292 1160.5303118 881.78116569 1160.5125451 C890.53414686 1160.50302829 899.2869618 1160.50432165 908.03993164 1160.52177979 C913.90683537 1160.53235405 919.77361392 1160.52805143 925.64050553 1160.51229975 C928.96986147 1160.50375821 932.298634 1160.50329184 935.62801185 1160.51656907 C966.83845152 1160.63207438 999.87048573 1156.47491244 1028.03735352 1142.0065918 C1029.89406565 1141.05433105 1031.76505086 1140.14419133 1033.6484375 1139.24609375 C1055.67844786 1128.6209612 1075.41668456 1115.01291169 1093 1098 C1093.94488281 1097.09507812 1094.88976563 1096.19015625 1095.86328125 1095.2578125 C1116.84264648 1074.77173802 1133.02367968 1049.81967352 1143.62109375 1022.5390625 C1144.77010858 1019.59003295 1145.96839061 1016.67030006 1147.1875 1013.75 C1149.85353416 1007.06818217 1152.2606082 1000.25793837 1152 993 C1152.66 993 1153.32 993 1154 993 C1157.88905822 973.15042641 1159.72444326 954.2234816 1159.61473083 933.94602966 C1159.61557023 931.1549739 1159.62396514 928.36395123 1159.63195282 925.57290798 C1159.64523072 919.56699756 1159.64044091 913.56132791 1159.62294388 907.55543137 C1159.59699768 898.62418249 1159.60029666 889.69310071 1159.60898646 880.76182676 C1159.62277393 865.7238179 1159.61327406 850.68591013 1159.58978081 835.64791679 C1159.56655078 820.76550891 1159.55297138 805.8831458 1159.55226326 791.00071907 C1159.55220981 790.07143115 1159.55215636 789.14214323 1159.55210129 788.18469507 C1159.55191266 784.41166809 1159.55179111 780.63864113 1159.55175897 776.86561415 C1159.55141892 741.54619441 1159.52443865 706.22684251 1159.48356687 670.90744868 C1159.44741985 639.57167505 1159.42830184 608.23594082 1159.42553711 576.90014648 C1159.42544561 575.90304291 1159.4253541 574.90593934 1159.42525982 573.87862052 C1159.42498338 570.86196652 1159.42471189 567.84531252 1159.4244408 564.82865852 C1159.42407774 560.82125787 1159.42370434 556.81385722 1159.42332363 552.80645657 C1159.4232334 551.8175156 1159.42314318 550.82857464 1159.42305022 549.80966577 C1159.42006491 518.86896171 1159.40259634 487.9282649 1159.38263602 456.98756774 C1159.3760325 446.73889004 1159.37033771 436.49021348 1159.36744571 426.24153399 C1159.36705394 424.86096829 1159.36705394 424.86096829 1159.36665427 423.45251237 C1159.36639514 422.53416399 1159.36613602 421.61581562 1159.36586904 420.66963851 C1159.36086286 402.95297529 1159.34958318 385.23634107 1159.32456874 367.51969372 C1159.31221519 358.65235959 1159.30511706 349.78506064 1159.30591112 340.91771771 C1159.30587308 334.9812498 1159.29847156 329.04481927 1159.28528446 323.10836611 C1159.27798094 319.73544855 1159.27471489 316.36266833 1159.27816027 312.98973542 C1159.29517432 293.58559652 1159.14838602 274.1476686 1154.25 255.25 C1153.98904541 254.20634277 1153.72809082 253.16268555 1153.45922852 252.08740234 C1150.1616349 239.24289474 1145.83818805 226.92099291 1140 215 C1139.71930664 214.41428223 1139.43861328 213.82856445 1139.14941406 213.22509766 C1129.53399211 193.17516225 1117.65516499 175.73032047 1103 159 C1102.52691406 158.45698242 1102.05382813 157.91396484 1101.56640625 157.35449219 C1094.02426933 148.75461655 1085.90468299 141.17386949 1077 134 C1075.57107422 132.84757812 1075.57107422 132.84757812 1074.11328125 131.671875 C1060.67981518 121.25484971 1046.26897571 112.67473637 1030.74365234 105.79785156 C1028.52051762 104.78060089 1026.39279499 103.61319282 1024.25 102.4375 C1000.77600697 90.75928644 972.50785676 85.81414255 946.48299313 85.87415886 C945.37149719 85.87270542 944.26000125 85.87125198 943.11482361 85.86975449 C939.39985362 85.86611253 935.68492512 85.86957257 931.96995544 85.87301636 C929.27566966 85.87186382 926.58138671 85.87031632 923.88710171 85.86828911 C918.03388783 85.86468468 912.18068318 85.86478253 906.32746887 85.86733627 C897.62305611 85.87112362 888.91865111 85.86918244 880.2142384 85.86612797 C864.66486885 85.86086459 849.11550341 85.86131779 833.56613348 85.86420688 C819.95415896 85.86672352 806.34218596 85.86737864 792.73021126 85.86618423 C791.82690885 85.86610785 790.92360643 85.86603146 789.99293122 85.86595276 C786.32595445 85.86564142 782.65897769 85.86532302 778.99200093 85.864993 C744.5926815 85.8619341 710.19336469 85.86470697 675.79404566 85.8700899 C645.25356485 85.87483266 614.7130882 85.87441323 584.17260742 85.86962891 C549.84632826 85.86426947 515.52005142 85.86215387 481.1937719 85.86524117 C477.53134763 85.86556187 473.86892337 85.86587472 470.2064991 85.86618423 C469.3047438 85.86626331 468.40298851 85.86634239 467.47390729 85.86642386 C453.87762312 85.86755963 440.28134063 85.86623417 426.68505669 85.86370468 C411.2144814 85.86084081 395.74391086 85.86156994 380.27333616 85.86698543 C371.62320872 85.86991383 362.97309157 85.87012484 354.3229644 85.86633925 C348.53444675 85.86408625 342.74593729 85.8655115 336.95742084 85.86984402 C333.66623457 85.8722077 330.37507248 85.87250891 327.0838862 85.86943804 C257.56460017 85.80957275 200.36039448 107.15978912 151.31640625 157.359375 Z " fill="#FEFDFD" transform="translate(0,0)"/>
<path d="M0 0 C2.21550888 1.13156206 4.41153202 2.30159093 6.59375 3.49609375 C11.98716184 6.44203193 17.57727292 8.96484594 23.15856934 11.53106689 C25.0278819 12.39087252 26.89553265 13.25418894 28.76269531 14.11865234 C33.02975152 16.09393289 37.29884169 18.06479561 41.56884766 20.03369141 C48.80806893 23.37344824 55.98559356 26.81518219 63.10375977 30.40600586 C69.80288312 33.77276528 76.54766834 37.04490033 83.29754639 40.30831909 C84.60957174 40.94273231 85.92130251 41.57775515 87.23272705 42.21340942 C89.09438201 43.11544751 90.95716677 44.01510832 92.8203125 44.9140625 C93.90723389 45.43919434 94.99415527 45.96432617 96.11401367 46.50537109 C98.74563015 47.73039299 101.39125813 48.82484448 104.08984375 49.890625 C111.48435389 53.30184877 118.79131434 57.05106878 125.90234375 61.015625 C126.65128906 61.43070313 127.40023438 61.84578125 128.171875 62.2734375 C131.62128335 65.18189994 132.95048459 68.70488803 133.47016048 73.12654877 C133.47259038 74.30049446 133.47502028 75.47444016 133.4775238 76.68395996 C133.48560211 77.67147759 133.48560211 77.67147759 133.49384362 78.67894506 C133.50808123 80.8714434 133.50103033 83.06333438 133.49389648 85.25585938 C133.49960222 86.83320092 133.50656727 88.41053834 133.51469421 89.98786926 C133.53261686 94.26263358 133.53145913 98.53719252 133.52575183 102.81198311 C133.52265915 106.38315032 133.52875321 109.95427814 133.53479058 113.52543974 C133.54883081 121.95042423 133.54727826 130.37530731 133.53588867 138.80029297 C133.52440339 147.4879766 133.53849108 156.17535169 133.56528515 164.86299467 C133.58744309 172.32728863 133.59407945 179.79148574 133.58820873 187.25581026 C133.58483872 191.71164625 133.58725733 196.16728437 133.60445976 200.62309265 C133.61992876 204.81258914 133.61597413 209.00162837 133.59715462 213.1911068 C133.59346881 214.72697042 133.59657704 216.26286793 133.60704041 217.79870033 C133.62025359 219.89875616 133.60870283 221.99729875 133.59104919 224.09729004 C133.59083991 225.27123573 133.59063063 226.44518143 133.590415 227.65470123 C132.71827055 233.29264576 129.30871892 237.28265635 124.8828125 240.7578125 C122.15004509 242.48439758 119.21905499 243.47757274 116.1953125 244.59375 C111.45569738 246.57306097 106.99895313 249.05916363 102.5065918 251.54199219 C97.99150168 254.00293166 93.43894127 255.9837349 88.64794922 257.84521484 C84.27563011 259.63203203 80.10451483 261.80262032 75.90234375 263.953125 C68.25891587 267.82161952 60.58108845 271.59684904 52.83984375 275.265625 C45.59237939 278.70271389 38.39483734 282.22307932 31.2331543 285.83569336 C22.21134838 290.38594232 13.17903553 294.91883666 4.02734375 299.203125 C2.86005737 299.77184326 2.86005737 299.77184326 1.66918945 300.35205078 C-4.46078185 303.16276257 -9.85358943 304.29539385 -16.37133789 302.03833008 C-19.10765695 300.83301883 -21.75420722 299.51389764 -24.41015625 298.140625 C-26.46722046 297.1167304 -28.52451996 296.09330839 -30.58203125 295.0703125 C-31.63326172 294.54018555 -32.68449219 294.01005859 -33.76757812 293.46386719 C-38.6988006 290.99519118 -43.68130908 288.63631097 -48.66015625 286.265625 C-58.84386105 281.38397927 -69.00339466 276.45300086 -79.16015625 271.515625 C-90.32237648 266.08974785 -101.48574662 260.66636515 -112.66015625 255.265625 C-113.26219879 254.97441772 -113.86424133 254.68321045 -114.48452759 254.38317871 C-122.30284331 250.60284727 -130.14172199 246.88129411 -138.0625 243.3203125 C-143.93650169 240.37122523 -147.64766531 237.67844348 -150.91015625 231.890625 C-151.40793419 228.67311192 -151.40793419 228.67311192 -151.40463257 225.14198303 C-151.41187581 224.16164908 -151.41187581 224.16164908 -151.41926539 223.16151041 C-151.430482 220.98494476 -151.41326036 218.80956839 -151.39599609 216.63305664 C-151.39814336 215.0671914 -151.40202314 213.50132771 -151.40750122 211.93547058 C-151.41717941 207.69153193 -151.40190971 203.4480152 -151.38159513 199.20412755 C-151.36399747 194.75778912 -151.36754977 190.3114632 -151.36831665 185.86509705 C-151.36644466 178.39770471 -151.3490959 170.93047509 -151.32177734 163.46313477 C-151.29033916 154.83802984 -151.27978085 146.21310314 -151.28124845 137.58794504 C-151.28260119 128.39550191 -151.26870718 119.20312721 -151.25035524 110.01070476 C-151.24609925 107.36669767 -151.24467378 104.72270168 -151.24387741 102.07869148 C-151.24186289 97.91801155 -151.22960734 93.75748025 -151.20954514 89.59684944 C-151.2037216 88.07270214 -151.20123902 86.54853772 -151.20240021 85.02437973 C-151.20338783 82.93818059 -151.1920106 80.85239226 -151.17758179 78.76625061 C-151.1742301 77.60060105 -151.17087841 76.4349515 -151.16742516 75.23397923 C-150.83151648 70.86865699 -150.19588893 66.58237852 -147.5 63.03515625 C-143.75604241 60.01697767 -140.15157222 57.9044427 -135.703125 56.08984375 C-131.28848722 54.19432795 -127.03760563 51.97564528 -122.75805664 49.79541016 C-119.71296293 48.25428421 -116.68541581 46.79494084 -113.54296875 45.45703125 C-108.8996617 43.45491713 -104.41806429 41.17822013 -99.91015625 38.890625 C-90.28501235 34.00622362 -90.28501235 34.00622362 -86.16015625 32.265625 C-82.99997495 30.92862522 -79.96536685 29.45073254 -76.91015625 27.890625 C-72.63035365 25.72948399 -68.32165565 23.76959697 -63.91015625 21.890625 C-61.44068098 20.67197515 -58.98518823 19.42912825 -56.53515625 18.171875 C-54.69855881 17.27544053 -52.83289968 16.43726768 -50.94921875 15.64453125 C-44.32566591 12.84198304 -37.90570823 9.57303887 -31.43847656 6.4309082 C-29.64585589 5.56062286 -27.85223591 4.69239687 -26.05859375 3.82421875 C-24.99817871 3.30915771 -23.93776367 2.79409668 -22.84521484 2.26342773 C-15.19775298 -1.31348776 -8.23744426 -3.14018009 0 0 Z " fill="#0A55BD" transform="translate(630.91015625,491.109375)"/>
<path d="M0 0 C5.13664174 2.15862303 8.92656442 5.32837792 12 10 C13.2914819 13.87444569 13.1773349 17.56241833 13.20532227 21.60229492 C13.21522186 22.48055435 13.22512146 23.35881378 13.23532104 24.26368713 C13.26693119 27.1692535 13.29169161 30.07483622 13.31640625 32.98046875 C13.33697619 34.99400764 13.35797268 37.00754222 13.37937927 39.02107239 C13.43459577 44.32287097 13.48400695 49.62470849 13.53222656 54.92657471 C13.58244463 60.33585072 13.63812911 65.74507013 13.69335938 71.15429688 C13.8009358 81.7694829 13.90238196 92.38471806 14 103 C14.73172173 102.31077202 14.73172173 102.31077202 15.47822571 101.60762024 C17.71055679 99.50514147 19.94316676 97.40295907 22.17578125 95.30078125 C22.94313599 94.57797974 23.71049072 93.85517822 24.50109863 93.11047363 C34.30260371 83.88258683 44.24431168 75.10589531 55 67 C55.62729004 66.52691406 56.25458008 66.05382812 56.90087891 65.56640625 C78.2470412 49.63369548 102.3114098 35.49663024 127.69921875 27.1328125 C130.45061534 26.18854622 133.10743047 25.15332048 135.796875 24.05078125 C152.1397149 17.46040829 169.69262064 13.97068978 187 11 C187.95729004 10.83338867 188.91458008 10.66677734 189.90087891 10.49511719 C227.3242322 4.27399186 267.33826048 6.91824433 304 16 C304.92022949 16.21615967 305.84045898 16.43231934 306.78857422 16.6550293 C314.33548636 18.46147773 321.70519247 20.7154976 329.06347656 23.16918945 C330.99495426 23.81082381 332.9307917 24.43784249 334.8671875 25.06445312 C342.96721868 27.72804363 350.4679247 31.01271993 358 35 C359.34347131 35.66729417 360.68947039 36.32954846 362.0390625 36.984375 C378.59419578 45.13570424 394.19957022 53.93806399 409 65 C409.74282227 65.55204102 410.48564453 66.10408203 411.25097656 66.67285156 C422.1454776 74.81466604 432.26607154 83.50775298 442 93 C442.82371094 93.79301514 442.82371094 93.79301514 443.6640625 94.60205078 C450.64787135 101.33071444 457.00676104 108.36378692 463 116 C463.8579534 117.05714491 464.71738864 118.11308852 465.578125 119.16796875 C473.02345917 128.36522522 479.59444301 138.05777514 486 148 C486.38816895 148.59699707 486.77633789 149.19399414 487.17626953 149.80908203 C492.44029269 157.93528361 496.8537013 166.37108846 501.05834961 175.07568359 C501.70516209 176.39748188 502.36562394 177.71266121 503.03735352 179.02197266 C505.17335512 183.18615246 506.93032889 187.30671354 508.4375 191.75 C509.9211515 196.03860965 511.49800246 200.18310542 513.375 204.3125 C517.70960779 214.45410616 520.17690469 225.36338454 523 236 C523.34417969 237.26457031 523.68835938 238.52914062 524.04296875 239.83203125 C532.73408961 275.55863139 533.99434491 316.90549904 527 353 C526.67805664 354.66361572 526.67805664 354.66361572 526.34960938 356.36083984 C523.80595442 369.12291034 520.82976165 381.68933038 516.65185547 394.01757812 C515.91590652 396.25574497 515.23871151 398.5075416 514.56640625 400.765625 C512.19048369 408.69315423 509.74685476 416.22362161 505.8125 423.5390625 C504.31162917 426.40494948 502.92104359 429.27677417 501.5625 432.2109375 C493.3138187 450.00136086 483.72214965 466.2894851 472 482 C471.11248047 483.19109375 471.11248047 483.19109375 470.20703125 484.40625 C461.48513805 495.84208147 451.88180297 506.56356906 442 517 C441.29101562 517.75152344 440.58203125 518.50304687 439.8515625 519.27734375 C434.61959989 524.66946849 428.86398544 529.31618773 423 534 C421.8283787 534.96096279 420.65785243 535.92326183 419.48828125 536.88671875 C390.27419692 560.82180066 356.80988102 577.35770843 321 589 C320.35506592 589.20995605 319.71013184 589.41991211 319.0456543 589.63623047 C303.05204389 594.75631746 286.61009683 597.67180904 270 600 C268.83194824 600.16894775 267.66389648 600.33789551 266.46044922 600.51196289 C256.93605857 601.80854332 247.55192016 602.36480016 237.9375 602.3125 C237.21343964 602.31034485 236.48937927 602.3081897 235.74337769 602.30596924 C200.74496132 602.14125737 165.7502359 596.69415656 133 584 C132.14792969 583.67257812 131.29585937 583.34515625 130.41796875 583.0078125 C100.13712121 571.0227485 72.14466055 554.69250221 47 534 C46.45102051 533.55398438 45.90204102 533.10796875 45.33642578 532.6484375 C30.93528674 520.90267889 17.27582969 507.79952646 6 493 C5.00138131 491.7397896 4.00125989 490.48076919 3 489.22265625 C-26.83214757 451.40437058 -62.48077767 389.01209627 -57 339 C-54.7144807 334.07734305 -51.28305294 331.18950751 -47 328 C-42.07456777 326.35818926 -38.17372711 326.08749087 -33.39453125 328.09375 C-27.9177734 331.13549439 -24.38187848 334.05832328 -22 340 C-21.08720955 343.61354682 -20.53591304 347.2515382 -20 350.9375 C-10.3361781 411.2588377 23.67241983 471.97244951 73 509 C73.65194336 509.49064941 74.30388672 509.98129883 74.97558594 510.48681641 C84.38975117 517.5336893 93.94690427 524.1205061 104.16552734 529.94384766 C106.00764606 531.00440203 107.82635068 532.09821749 109.64453125 533.19921875 C123.40060962 541.39486253 138.41927325 547.94748915 153.81176758 552.37109375 C157.70566517 553.4902146 161.52314737 554.83679316 165.35546875 556.1484375 C177.65589965 560.16291297 190.19845746 561.90504011 202.99658203 563.59863281 C205.10204632 563.88000034 207.20295671 564.19663544 209.29931641 564.53930664 C213.6259391 565.07792236 217.84826409 565.16208006 222.203125 565.16796875 C223.08039246 565.17129715 223.95765991 565.17462555 224.86151123 565.17805481 C226.71723918 565.18310012 228.57297614 565.18546388 230.42871094 565.18530273 C233.20003284 565.18746108 235.97093736 565.20556383 238.7421875 565.22460938 C253.72218418 565.27293734 268.39191435 564.47362712 283 561 C284.07765625 560.75378906 285.1553125 560.50757813 286.265625 560.25390625 C288.3966894 559.76019107 290.52679636 559.26233572 292.65625 558.76171875 C294.71144976 558.29353656 296.77330001 557.85235069 298.84375 557.45703125 C326.7773927 551.86279367 355.59136183 538.117423 379 522 C380.02625488 521.30874023 380.02625488 521.30874023 381.07324219 520.60351562 C395.45434998 510.90387606 408.06235129 500.08275942 420.375 487.875 C421.20749268 487.05193359 422.03998535 486.22886719 422.89770508 485.38085938 C428.36115014 479.88842037 433.29150679 474.14910333 438 468 C438.49258301 467.36143066 438.98516602 466.72286133 439.49267578 466.06494141 C461.08268115 437.77269519 476.16235067 406.15294394 486 372 C486.34804687 370.7931958 486.34804687 370.7931958 486.703125 369.56201172 C489.23380653 360.66420577 491.47349654 351.8584142 492.56079102 342.65161133 C492.85078401 340.24059122 493.16535428 337.83238493 493.50585938 335.42797852 C494.86230398 325.61959819 495.36147978 316.02097858 495.3125 306.125 C495.31026428 304.99579636 495.31026428 304.99579636 495.3079834 303.84378052 C495.07071345 236.59279952 467.60122247 171.3427817 421 123 C420.46584473 122.44393066 419.93168945 121.88786133 419.38134766 121.31494141 C412.32100534 114.00281868 405.08258368 107.19230201 397 101 C396.47277344 100.59104492 395.94554687 100.18208984 395.40234375 99.76074219 C370.95456335 80.88603469 344.11479475 67.10993164 315 57 C313.8140625 56.58105469 312.628125 56.16210938 311.40625 55.73046875 C304.67677215 53.50797014 297.78673097 51.97407255 290.875 50.4375 C289.9873999 50.23930664 289.0997998 50.04111328 288.18530273 49.83691406 C285.13058985 49.18196543 282.06910537 48.5839652 279 48 C278.34643524 47.87044922 277.69287048 47.74089844 277.01950073 47.60742188 C264.16378791 45.10500001 251.60265269 44.53118998 238.52270508 44.60888672 C235.33305532 44.62489682 232.14468862 44.60897994 228.95507812 44.58984375 C209.69644808 44.56845731 190.59502646 46.22386133 171.9375 51.1875 C170.77541016 51.48865723 169.61332031 51.78981445 168.41601562 52.10009766 C122.04014613 64.4285818 82.09029668 87.85263262 47.09375 120.3515625 C46.20768066 121.1720105 46.20768066 121.1720105 45.30371094 122.0090332 C43.86826912 123.33841505 42.43400788 124.66907148 41 126 C41.93658951 126.00586624 42.87317902 126.01173248 43.83815002 126.01777649 C52.68053884 126.07508113 61.52268354 126.14788304 70.36482334 126.23571491 C74.91027096 126.28037212 79.45562992 126.31963842 84.0012207 126.34643555 C88.39100752 126.37251502 92.78045228 126.41295006 97.17002678 126.46318626 C98.84164094 126.47982364 100.51331422 126.49135737 102.18499947 126.49761391 C104.53328116 126.50728932 106.88069392 126.53538814 109.22875977 126.56762695 C109.91424896 126.56619186 110.59973816 126.56475677 111.30599976 126.5632782 C117.51415171 126.68319642 122.02569545 128.2949188 126.75 132.375 C131.04925695 137.39079977 132.69489445 140.77446928 132.4765625 147.43359375 C131.39974907 153.23249884 127.76821142 156.70572581 123.15907288 160.07946777 C117.89734022 163.0093476 112.33381113 162.55817892 106.45874023 162.51757812 C105.2091452 162.5245874 103.95955017 162.53159668 102.67208862 162.53881836 C99.26070826 162.55336432 95.85030371 162.55001647 92.43897891 162.53730202 C88.86100425 162.52713767 85.28306978 162.53657698 81.70509338 162.54284668 C75.69890909 162.55011221 69.69292191 162.54056334 63.68676758 162.52148438 C56.7514138 162.49970761 49.81653029 162.50677689 42.88118786 162.52879 C36.91578102 162.54696355 30.95051543 162.54949313 24.98508984 162.53903532 C21.42688069 162.53281232 17.86889235 162.53193177 14.31069756 162.54518127 C10.34423524 162.55892103 6.37829651 162.53985803 2.41186523 162.51757812 C1.23818893 162.52567505 0.06451263 162.53377197 -1.14472961 162.54211426 C-7.40476137 162.47695044 -11.26411119 162.24547826 -16 158 C-20.46861056 153.15900523 -22.24299396 148.89752254 -22.27415466 142.32743835 C-22.28911736 140.6306041 -22.28911736 140.6306041 -22.30438232 138.89949036 C-22.305047 137.66768539 -22.30571167 136.43588043 -22.30639648 135.16674805 C-22.31472 133.86213623 -22.32304352 132.55752441 -22.33161926 131.21337891 C-22.35352524 127.64092906 -22.36235792 124.06856478 -22.36744571 120.49605536 C-22.37109404 118.26154367 -22.37733658 116.02705423 -22.3844471 113.79255104 C-22.40892847 105.98970179 -22.42199055 98.18691889 -22.42553711 90.3840332 C-22.42917094 83.12268402 -22.45905834 75.86175789 -22.50094169 68.60053796 C-22.53568833 62.35661241 -22.5510863 56.11282676 -22.55178314 49.86880523 C-22.55257451 46.14384757 -22.56124746 42.41932107 -22.58978081 38.69446373 C-22.62092087 34.53648631 -22.61188108 30.3795108 -22.59936523 26.22143555 C-22.61419952 24.99570328 -22.62903381 23.76997101 -22.64431763 22.50709534 C-22.57457543 14.36628541 -21.17902676 9.15490819 -15.35219479 3.36170483 C-10.80305441 -0.66155125 -5.83671386 -1.14176719 0 0 Z " fill="#0B55BD" transform="translate(389,321)"/>
<path d="M0 0 C3.5978748 1.4223647 7.08732877 2.95850279 10.5703125 4.64453125 C11.6325 5.15693359 12.6946875 5.66933594 13.7890625 6.19726562 C14.88992188 6.73029297 15.99078125 7.26332031 17.125 7.8125 C26.2272166 12.21732379 26.2272166 12.21732379 35.4140625 16.44140625 C41.47506394 19.17646187 47.40528227 22.1637635 53.33956909 25.1607666 C63.49333945 30.28558135 73.67525954 35.34512857 83.9375 40.25 C84.85885742 40.69102051 85.78021484 41.13204102 86.72949219 41.58642578 C91.45381356 43.83370398 96.18436008 45.93615432 101 48 C101 88.59 101 129.18 101 171 C96.45704254 170.09140851 93.093573 168.71985218 89.0625 166.625 C87.6277334 165.89427745 86.19283 165.16382345 84.7578125 164.43359375 C83.98985352 164.04026855 83.22189453 163.64694336 82.43066406 163.24169922 C63.07431837 153.35355396 43.4970898 143.93008013 23.7890625 134.765625 C19.06142935 132.56540772 14.34183913 130.34825149 9.625 128.125 C8.36478027 127.53404541 8.36478027 127.53404541 7.07910156 126.93115234 C6.30276367 126.5645752 5.52642578 126.19799805 4.7265625 125.8203125 C4.03127441 125.49305176 3.33598633 125.16579102 2.61962891 124.82861328 C1 124 1 124 0 123 C-0.09597204 121.40577964 -0.12187924 119.8072955 -0.12025452 118.21018982 C-0.12162918 117.17387421 -0.12300385 116.13755859 -0.12442017 115.06983948 C-0.12082489 113.92329391 -0.11722961 112.77674835 -0.11352539 111.59545898 C-0.11367142 110.39562378 -0.11381744 109.19578857 -0.1139679 107.95959473 C-0.11338894 104.66014809 -0.10835978 101.36076336 -0.10139394 98.0613277 C-0.09515973 94.61665703 -0.09455655 91.17198562 -0.09336853 87.72731018 C-0.09025541 81.2001727 -0.08204229 74.67305189 -0.07201904 68.14592177 C-0.0608573 60.71677984 -0.0553473 53.28763714 -0.05032361 45.85848892 C-0.03985966 30.57231628 -0.0222606 15.28616028 0 0 Z " fill="#E8F0FC" transform="translate(507,586)"/>
<path d="M0 0 C0 40.59 0 81.18 0 123 C-49 147 -49 147 -64 154 C-67.36388291 155.65122668 -70.71851012 157.31022159 -74.0625 159 C-75.31812744 159.63010986 -75.31812744 159.63010986 -76.59912109 160.27294922 C-80.5103432 162.23641413 -84.41615138 164.21015829 -88.31640625 166.1953125 C-88.96536865 166.52402344 -89.61433105 166.85273437 -90.28295898 167.19140625 C-92.00542588 168.06439676 -93.72546267 168.94217741 -95.4453125 169.8203125 C-98 171 -98 171 -100 171 C-100 130.41 -100 89.82 -100 48 C-67.64412313 31.82206157 -67.64412313 31.82206157 -54.046875 25.3828125 C-47.88854115 22.44490928 -41.7643664 19.4389286 -35.640625 16.4296875 C-34.62448624 15.93080521 -33.60834747 15.43192291 -32.56141663 14.91792297 C-28.3953029 12.87230282 -24.22929693 10.82651591 -20.06710815 8.7729187 C-17.12321498 7.32048453 -14.17704733 5.87275783 -11.23046875 4.42578125 C-10.32947449 3.97947357 -9.42848022 3.53316589 -8.50018311 3.07333374 C-7.67278625 2.66797394 -6.8453894 2.26261414 -5.99291992 1.8449707 C-5.26731369 1.48732132 -4.54170746 1.12967194 -3.79411316 0.76118469 C-2 0 -2 0 0 0 Z " fill="#E8F0FC" transform="translate(736,586)"/>
<path d="M0 0 C1.40318028 0.66687407 2.80147497 1.34409411 4.19555664 2.02978516 C5.35051636 2.58334435 5.35051636 2.58334435 6.52880859 3.14808655 C9.05873184 4.3629836 11.58207711 5.59095096 14.10571289 6.81884766 C15.87353593 7.67020249 17.64185474 8.52052857 19.41064453 9.36987305 C23.10913343 11.1468539 26.80541512 12.92831307 30.50024414 14.71289062 C38.81401535 18.72410606 47.15290343 22.68243692 55.49221802 26.64019775 C58.05625794 27.85786148 60.61908649 29.0780412 63.18164062 30.29882812 C64.76959009 31.0542466 66.35756099 31.80962002 67.94555664 32.56494141 C68.64712891 32.89961929 69.34870117 33.23429718 70.0715332 33.57911682 C75.06704552 35.9520525 80.10571463 38.21762509 85.16821289 40.44384766 C85.16821289 41.10384766 85.16821289 41.76384766 85.16821289 42.44384766 C84.32734131 42.84156372 84.32734131 42.84156372 83.46948242 43.24731445 C71.97439073 48.69315185 60.5316851 54.2279665 49.16821289 59.94384766 C39.98608875 64.56217257 30.76606809 69.08309421 21.46728516 73.4621582 C16.75738193 75.68860541 12.10313424 77.97942335 7.50024414 80.42041016 C6.59193848 80.89647705 5.68363281 81.37254395 4.74780273 81.86303711 C3.03464276 82.76647492 1.32983437 83.68600247 -0.36450195 84.62426758 C-1.12843262 85.02492432 -1.89236328 85.42558105 -2.67944336 85.83837891 C-3.33952393 86.19778564 -3.99960449 86.55719238 -4.6796875 86.92749023 C-9.51233163 88.08699589 -14.60846296 84.72171045 -18.92944336 82.72900391 C-20.62617187 81.94686523 -20.62617187 81.94686523 -22.35717773 81.14892578 C-24.10804688 80.33584961 -24.10804688 80.33584961 -25.89428711 79.50634766 C-27.06540039 78.96816406 -28.23651367 78.42998047 -29.44311523 77.87548828 C-34.39430623 75.58489165 -39.16643553 73.2746333 -43.83178711 70.44384766 C-45.25073154 69.72181408 -46.68079442 69.0212379 -48.12084961 68.34228516 C-48.96381592 67.94243408 -49.80678223 67.54258301 -50.67529297 67.13061523 C-51.59318604 66.69773193 -52.5110791 66.26484863 -53.45678711 65.81884766 C-64.25719982 60.69159702 -75.01763559 55.48489613 -85.76928711 50.25634766 C-86.96451996 49.67527252 -86.96451996 49.67527252 -88.18389893 49.0824585 C-92.73364949 46.87052165 -97.28293649 44.65763462 -101.83178711 42.44384766 C-101.83178711 41.78384766 -101.83178711 41.12384766 -101.83178711 40.44384766 C-96.22837488 37.59140642 -90.6121916 34.92116387 -84.83178711 32.44384766 C-82.36232826 31.22515368 -79.9068232 29.98235302 -77.45678711 28.72509766 C-75.48354805 27.76196907 -73.47692369 26.8667762 -71.45678711 26.00634766 C-67.8372324 24.44619477 -64.3439958 22.73131101 -60.83178711 20.94384766 C-56.22397045 18.59879811 -51.58278216 16.47998839 -46.83178711 14.44384766 C-44.49015074 13.29393694 -42.15675788 12.12709171 -39.83178711 10.94384766 C-36.37138268 9.18274897 -32.93315292 7.48722492 -29.36303711 5.95947266 C-26.8834687 4.89523312 -24.51147073 3.80367641 -22.11303711 2.58447266 C-21.49041992 2.27380859 -20.86780273 1.96314453 -20.22631836 1.64306641 C-18.95697836 1.00708781 -17.69390027 0.35846386 -16.43725586 -0.30224609 C-10.50515629 -3.21302787 -5.91350843 -2.60126367 0 0 Z " fill="#E8F0FC" transform="translate(629.831787109375,522.55615234375)"/>
<path d="M0 0 C0.66 0 1.32 0 2 0 C2.89515571 6.86858744 3.13760241 13.56453149 3.11352539 20.48657227 C3.11367142 21.59979355 3.11381744 22.71301483 3.1139679 23.85997009 C3.11327539 27.51213582 3.10551416 31.16424952 3.09765625 34.81640625 C3.09578972 37.35945101 3.09436692 39.90249613 3.09336853 42.44554138 C3.08995024 48.43763362 3.0820817 54.42970378 3.07201904 60.4217872 C3.06080518 67.24894929 3.05533422 74.07611231 3.05032361 80.90328133 C3.03989751 94.93553106 3.02233108 108.96776452 3 123 C2.01 123 1.02 123 0 123 C0 82.41 0 41.82 0 0 Z " fill="#C0D7F3" transform="translate(507,586)"/>
<path d="M0 0 C0.33 1.32 0.66 2.64 1 4 C0.01 4.33 -0.98 4.66 -2 5 C-2.69453432 6.31903157 -3.35599256 7.65557572 -4 9 C-9.15152063 15.28442766 -14.82552872 21.69913497 -21 27 C-21.66 27 -22.32 27 -23 27 C-23.33 27.99 -23.66 28.98 -24 30 C-24.66 29.34 -25.32 28.68 -26 28 C-25.42556152 27.43603516 -24.85112305 26.87207031 -24.25927734 26.29101562 C-21.6257803 23.69943804 -19.00036959 21.09980967 -16.375 18.5 C-15.47136719 17.613125 -14.56773437 16.72625 -13.63671875 15.8125 C-8.61504859 10.82748436 -4.00861364 5.84047366 0 0 Z " fill="#1A5DC4" transform="translate(825,791)"/>
<path d="M0 0 C0.66 0.33 1.32 0.66 2 1 C1.67 2.65 1.34 4.3 1 6 C1.78375 6.226875 2.5675 6.45375 3.375 6.6875 C8.12301625 8.40660933 12.52102552 10.68084721 17 13 C17 13.66 17 14.32 17 15 C8.82175048 12.60292686 1.53348722 8.91141228 -6 5 C-6 4.34 -6 3.68 -6 3 C-4.03533587 1.93224776 -2.03144641 0.93446535 0 0 Z " fill="#D8E4F6" transform="translate(534,560)"/>
<path d="M0 0 C0.99 0.33 1.98 0.66 3 1 C1.11620471 2.99195579 -0.7805332 4.9679364 -2.6875 6.9375 C-3.48317383 7.78344727 -3.48317383 7.78344727 -4.29492188 8.64648438 C-7.36097936 11.78778253 -9.39885498 13.73537014 -14 14 C-5.46104796 3.53978375 -5.46104796 3.53978375 0 0 Z " fill="#E0EBF9" transform="translate(443,434)"/>
<path d="M0 0 C2.15641331 3.23461997 2.81100973 5.67072961 3.6875 9.4375 C3.95949219 10.57058594 4.23148437 11.70367188 4.51171875 12.87109375 C4.96085657 15.74916889 4.98469931 17.31025087 4 20 C4 19.01 4 18.02 4 17 C3.34 17 2.68 17 2 17 C1.46585888 15.10787298 0.94821671 13.21108364 0.4375 11.3125 C0.14746094 10.25675781 -0.14257812 9.20101562 -0.44140625 8.11328125 C-1.00124767 4.99304618 -0.84690764 3.02306766 0 0 Z " fill="#D7E3F5" transform="translate(334,685)"/>
<path d="M0 0 C0.99 0.495 0.99 0.495 2 1 C3.6023312 8.85142288 3.08712733 17.0230091 3 25 C2.67 25 2.34 25 2 25 C1.93941406 24.00097656 1.87882813 23.00195312 1.81640625 21.97265625 C1.73261719 20.68230469 1.64882813 19.39195312 1.5625 18.0625 C1.48128906 16.77472656 1.40007813 15.48695313 1.31640625 14.16015625 C1.35080812 11.13976043 1.35080812 11.13976043 0 10 C-0.07205511 8.31391034 -0.08386068 6.62499341 -0.0625 4.9375 C-0.05347656 4.01839844 -0.04445313 3.09929688 -0.03515625 2.15234375 C-0.02355469 1.44207031 -0.01195312 0.73179687 0 0 Z " fill="#2A6AC8" transform="translate(916,591)"/>
<path d="M0 0 C0.66 0.33 1.32 0.66 2 1 C2 3.31 2 5.62 2 8 C-3.75 6.125 -3.75 6.125 -6 5 C-6 4.34 -6 3.68 -6 3 C-4.03533587 1.93224776 -2.03144641 0.93446535 0 0 Z " fill="#C6DBF4" transform="translate(534,560)"/>
<path d="M0 0 C5.34812435 0.54852557 10.40360054 2.19377717 15 5 C15.33 5.99 15.66 6.98 16 8 C10.55123997 6.27933894 5.28830549 4.15294651 0 2 C0 1.34 0 0.68 0 0 Z " fill="#2965C3" transform="translate(620,518)"/>
<path d="M0 0 C-3.19373157 3.19373157 -7.06829832 3.90188182 -11.4609375 4.125 C-13.64439214 4.125 -15.81849415 4.08904106 -18 4 C-11.79460682 0.84426586 -6.92105136 -0.23865694 0 0 Z " fill="#D3E4F7" transform="translate(711,911)"/>
<path d="M0 0 C0.33 0 0.66 0 1 0 C0.09032258 9.09677419 0.09032258 9.09677419 -2 12 C-2.99 12.33 -3.98 12.66 -5 13 C-4.55005243 11.20620902 -4.08975857 9.41501072 -3.625 7.625 C-3.36976563 6.62726562 -3.11453125 5.62953125 -2.8515625 4.6015625 C-2 2 -2 2 0 0 Z " fill="#D2E1F6" transform="translate(905,718)"/>
<path d="M0 0 C0.66 0.33 1.32 0.66 2 1 C-0.55959603 3.98619537 -3.3940848 5.48551562 -7 7 C-9.875 7.1875 -9.875 7.1875 -12 7 C-8.44008172 4.03340143 -4.34777457 1.618652 0 0 Z " fill="#CFE2F8" transform="translate(699,603)"/>
<path d="M0 0 C0.33 0.66 0.66 1.32 1 2 C0.04882866 3.1725131 -0.91117009 4.33787015 -1.875 5.5 C-2.40867187 6.1496875 -2.94234375 6.799375 -3.4921875 7.46875 C-4.23855469 8.22671875 -4.23855469 8.22671875 -5 9 C-5.66 9 -6.32 9 -7 9 C-7.33 9.99 -7.66 10.98 -8 12 C-8.66 11.34 -9.32 10.68 -10 10 C-6.7 6.7 -3.4 3.4 0 0 Z " fill="#2463C5" transform="translate(809,809)"/>
<path d="M0 0 C5.66442374 0.36504064 10.00703705 1.0554321 15 4 C11.34142468 5.31534494 8.91973519 4.65468309 5.25 3.5625 C3.77273438 3.13130859 3.77273438 3.13130859 2.265625 2.69140625 C1.51796875 2.46324219 0.7703125 2.23507812 0 2 C0 1.34 0 0.68 0 0 Z " fill="#CCDDF4" transform="translate(685,334)"/>
<path d="M0 0 C-2.09782787 2.09782787 -3.3799207 2.6509396 -6.125 3.625 C-6.84945312 3.88539063 -7.57390625 4.14578125 -8.3203125 4.4140625 C-9.15175781 4.70410156 -9.15175781 4.70410156 -10 5 C-10.66 4.34 -11.32 3.68 -12 3 C-10.75823305 2.29773859 -9.50614401 1.61370891 -8.25 0.9375 C-7.20585938 0.36322266 -7.20585938 0.36322266 -6.140625 -0.22265625 C-3.63859372 -1.1312406 -2.4667645 -0.88336837 0 0 Z " fill="#D0E1F7" transform="translate(616,524)"/>
<path d="M0 0 C-2.93202088 1.95468059 -4.68004563 2.55258673 -8.0625 3.25 C-9.37927734 3.53617187 -9.37927734 3.53617187 -10.72265625 3.828125 C-11.47417969 3.88484375 -12.22570312 3.9415625 -13 4 C-13.66 3.34 -14.32 2.68 -15 2 C-9.75614911 0.2520497 -5.52677733 -0.19392201 0 0 Z " fill="#1C5FC4" transform="translate(559,337)"/>
<path d="M0 0 C5.28 0.33 10.56 0.66 16 1 C16 1.33 16 1.66 16 2 C11.05 2.33 6.1 2.66 1 3 C0.67 2.01 0.34 1.02 0 0 Z " fill="#B5CAED" transform="translate(593,921)"/>
<path d="M0 0 C0 0.66 0 1.32 0 2 C4.29 2.33 8.58 2.66 13 3 C13 3.33 13 3.66 13 4 C6.13484138 4.26404456 -0.25846717 3.25841946 -7 2 C-7 1.67 -7 1.34 -7 1 C-2.25 0 -2.25 0 0 0 Z " fill="#4F81D1" transform="translate(580,917)"/>
<path d="M0 0 C5.50946709 -0.10395221 9.12941325 0.48073099 14 3 C10.78543644 4.03719328 8.59074417 3.94068337 5.3125 3.1875 C4.52488281 3.01605469 3.73726562 2.84460938 2.92578125 2.66796875 C1 2 1 2 0 0 Z " fill="#CADBF2" transform="translate(669,331)"/>
<path d="M0 0 C7.37297297 2.34594595 7.37297297 2.34594595 10 4 C10.33 4.99 10.66 5.98 11 7 C9.33333333 6.33333333 7.66666667 5.66666667 6 5 C5.0925 4.690625 4.185 4.38125 3.25 4.0625 C2.5075 3.711875 1.765 3.36125 1 3 C0.67 2.01 0.34 1.02 0 0 Z " fill="#CDDEF4" transform="translate(594,749)"/>
<path d="M0 0 C-1.62170379 1.00533667 -3.24747237 2.00411907 -4.875 3 C-6.23238281 3.8353125 -6.23238281 3.8353125 -7.6171875 4.6875 C-10 6 -10 6 -12 6 C-10.90012224 2.70036671 -10.54413252 2.38935228 -7.6875 0.75 C-7.09324219 0.39421875 -6.49898438 0.0384375 -5.88671875 -0.328125 C-3.5508436 -1.15994803 -2.30725794 -0.7945524 0 0 Z " fill="#D7E5F7" transform="translate(478,367)"/>
<path d="M0 0 C3.465 1.98 3.465 1.98 7 4 C6.67 5.65 6.34 7.3 6 9 C5.38125 8.195625 4.7625 7.39125 4.125 6.5625 C2.25835959 3.96125481 2.25835959 3.96125481 0 3 C0 2.01 0 1.02 0 0 Z " fill="#1B5FC8" transform="translate(754,551)"/>
<path d="M0 0 C0.80824219 0.19464844 1.61648438 0.38929688 2.44921875 0.58984375 C3.06410156 0.74582031 3.67898438 0.90179687 4.3125 1.0625 C4.3125 1.7225 4.3125 2.3825 4.3125 3.0625 C-4.25892857 2.20535714 -4.25892857 2.20535714 -7.6875 0.0625 C-4.39053895 -1.03648702 -3.28255097 -0.80874444 0 0 Z " fill="#2463C4" transform="translate(562.6875,913.9375)"/>
<path d="M0 0 C3.91211733 1.15585285 6.8745041 2.35534962 10 5 C3.51707705 5.3669579 3.51707705 5.3669579 1.0625 3.625 C0 2 0 2 0 0 Z " fill="#165BC0" transform="translate(739,544)"/>
<path d="M0 0 C1.55136786 2.46393719 2.03039129 3.68089146 1.75 6.625 C1 9 1 9 -1 11 C-2.60080151 6.99799622 -1.29279692 3.95443764 0 0 Z " fill="#D3E3F7" transform="translate(910,697)"/>
<path d="M0 0 C0.66 0.33 1.32 0.66 2 1 C-0.35277269 3.72426311 -2.62496331 4.8141763 -6 6 C-6.66 5.34 -7.32 4.68 -8 4 C-6.71349294 3.30289269 -5.42059335 2.61757124 -4.125 1.9375 C-3.40570312 1.55464844 -2.68640625 1.17179688 -1.9453125 0.77734375 C-1.30335938 0.52082031 -0.66140625 0.26429688 0 0 Z " fill="#CADFF6" transform="translate(574,541)"/>
<path d="M0 0 C1.85625 0.061875 1.85625 0.061875 3.75 0.125 C2.76 1.61 2.76 1.61 1.75 3.125 C-1.55 2.795 -4.85 2.465 -8.25 2.125 C-4.63863788 0.31931894 -3.705469 -0.12351563 0 0 Z " fill="#B9CDED" transform="translate(651.25,920.875)"/>
<path d="M0 0 C0 0.66 0 1.32 0 2 C-2.8125 3.5625 -2.8125 3.5625 -6 5 C-6.99 4.67 -7.98 4.34 -9 4 C-3.7826087 0 -3.7826087 0 0 0 Z " fill="#C9DDF6" transform="translate(710,599)"/>
<path d="M0 0 C3.48670834 1.1094072 6.77484237 2.26337666 10 4 C10 4.66 10 5.32 10 6 C3.47692308 4.52307692 3.47692308 4.52307692 1.0625 1.875 C0.711875 1.25625 0.36125 0.6375 0 0 Z " fill="#DDE8F8" transform="translate(588,592)"/>
<path d="M0 0 C3.77545388 1.09068668 6.47043472 1.9083091 9 5 C8.01 5.495 8.01 5.495 7 6 C3.9375 4.75 3.9375 4.75 1 3 C0.67 2.01 0.34 1.02 0 0 Z " fill="#2C69C7" transform="translate(684,547)"/>
<path d="M0 0 C0.66 0 1.32 0 2 0 C2.99 2.97 3.98 5.94 5 9 C4.34 9 3.68 9 3 9 C0 3.375 0 3.375 0 0 Z " fill="#DBE7F7" transform="translate(352,745)"/>
<path d="M0 0 C3.37462715 0.54723683 5.08235 1.0549 8 3 C8 3.66 8 4.32 8 5 C2.25 3.125 2.25 3.125 0 2 C0 1.34 0 0.68 0 0 Z " fill="#D4E2F5" transform="translate(579,742)"/>
<path d="M0 0 C0.66 0.33 1.32 0.66 2 1 C-0.06756277 3.7972908 -1.14440371 4.02692273 -4.6875 4.6875 C-5.780625 4.790625 -6.87375 4.89375 -8 5 C-5.45378681 2.99940392 -3.01962385 1.20784954 0 0 Z " fill="#306EC9" transform="translate(709,721)"/>
<path d="M0 0 C2.45823172 3.68734758 3.01242616 6.69699971 4 11 C2 9.4375 2 9.4375 0 7 C-0.25 3.25 -0.25 3.25 0 0 Z " fill="#C4D6F0" transform="translate(343,718)"/>
<path d="M0 0 C-3.44450737 2.29633824 -5.93812283 2.54016485 -10 3 C-4.375 -1.3125 -4.375 -1.3125 0 0 Z " fill="#296AC7" transform="translate(615,493)"/>
<path d="M0 0 C3.68754757 0.49831724 5.60490662 1.10067643 8 4 C7.01 4.495 7.01 4.495 6 5 C3.96855359 4.06553465 1.96466413 3.06775224 0 2 C0 1.34 0 0.68 0 0 Z " fill="#C9DAF2" transform="translate(554,730)"/>
<path d="M0 0 C0.86625 0.3403125 0.86625 0.3403125 1.75 0.6875 C0.5625 2.25 0.5625 2.25 -1.25 3.6875 C-3.9375 3.375 -3.9375 3.375 -6.25 2.6875 C-2.80384615 -0.38942308 -2.80384615 -0.38942308 0 0 Z " fill="#296DCA" transform="translate(717.25,718.3125)"/>
<path d="M0 0 C3.68754757 0.49831724 5.60490662 1.10067643 8 4 C7.01 4.495 7.01 4.495 6 5 C3.96855359 4.06553465 1.96466413 3.06775224 0 2 C0 1.34 0 0.68 0 0 Z " fill="#C7D8F1" transform="translate(527,717)"/>
<path d="M0 0 C0.33 0 0.66 0 1 0 C1.95261487 4.76307437 2.08333357 9.1666528 2 14 C1.67 14 1.34 14 1 14 C-1.48063781 4.58997722 -1.48063781 4.58997722 0 0 Z " fill="#AEC6EA" transform="translate(881,583)"/>
<path d="M0 0 C3.68754757 0.49831724 5.60490662 1.10067643 8 4 C7.01 4.495 7.01 4.495 6 5 C3.96855359 4.06553465 1.96466413 3.06775224 0 2 C0 1.34 0 0.68 0 0 Z " fill="#2C69C4" transform="translate(662,537)"/>
<path d="M0 0 C3.68754757 0.49831724 5.60490662 1.10067643 8 4 C7.01 4.495 7.01 4.495 6 5 C3.96855359 4.06553465 1.96466413 3.06775224 0 2 C0 1.34 0 0.68 0 0 Z " fill="#C8D9F1" transform="translate(699,523)"/>
<path d="M0 0 C0.66 0.33 1.32 0.66 2 1 C-0.17424117 3.50037734 -1.73045798 4.43628586 -5 5 C-5.33 4.34 -5.66 3.68 -6 3 C-4.03533587 1.93224776 -2.03144641 0.93446535 0 0 Z " fill="#CADDF5" transform="translate(759,889)"/>
<path d="M0 0 C-1.97746603 0.73080266 -3.98072489 1.39421747 -6 2 C-6.66 1.67 -7.32 1.34 -8 1 C-8 0.34 -8 -0.32 -8 -1 C-3.375 -2.25 -3.375 -2.25 0 0 Z " fill="#DAE5F6" transform="translate(627,608)"/>
<path d="M0 0 C-0.33 1.32 -0.66 2.64 -1 4 C-2.32 4.33 -3.64 4.66 -5 5 C-5.33 4.01 -5.66 3.02 -6 2 C-2.25 0 -2.25 0 0 0 Z " fill="#1E63C7" transform="translate(571,512)"/>
</svg>
