<?xml version="1.0" encoding="UTF-8"?>
<svg version="1.1" xmlns="http://www.w3.org/2000/svg" width="1024" height="1024">
<path d="M0 0 C4.51057619 2.25528809 6.80551329 4.50373816 9 9 C9.39872742 12.25874329 9.39872742 12.25874329 9.43237305 15.9934082 C9.44766052 17.01862831 9.44766052 17.01862831 9.46325684 18.06455994 C9.49330492 20.31005131 9.50263979 22.55511553 9.51171875 24.80078125 C9.52857159 26.3630667 9.54672265 27.92533863 9.56611633 29.4875946 C9.61355708 33.58924132 9.64340456 37.69083324 9.66955566 41.79266357 C9.69939123 45.98232846 9.74591124 50.17180471 9.79101562 54.36132812 C9.87698126 62.57412594 9.94435629 70.78694104 10 79 C10.60967117 78.38434677 11.21934235 77.76869354 11.8474884 77.13438416 C12.65167709 76.32554276 13.45586578 75.51670135 14.28442383 74.68334961 C15.07972 73.88207138 15.87501617 73.08079315 16.69441223 72.25523376 C19.54315007 69.46871232 22.52185944 66.97556682 25.6875 64.5625 C26.57840332 63.87619507 26.57840332 63.87619507 27.48730469 63.17602539 C29.31792696 61.77459092 31.15783508 60.38621298 33 59 C33.56348145 58.57041992 34.12696289 58.14083984 34.70751953 57.69824219 C44.26221841 50.44638485 54.36530683 44.52753606 65 39 C65.73283203 38.61457031 66.46566406 38.22914063 67.22070312 37.83203125 C117.11081571 11.89094343 174.2520986 7.8277985 228.71777344 18.66455078 C231.04502278 19.07413472 231.04502278 19.07413472 233.60253906 18.92529297 C236 19 236 19 239 21 C241.47388663 21.75355697 243.94201943 22.45194979 246.4375 23.125 C262.3606572 27.63486793 277.40563786 34.25511748 292 42 C292.70833984 42.36818848 293.41667969 42.73637695 294.14648438 43.11572266 C311.71512894 52.27607286 327.31068676 63.74409627 342 77 C342.6089209 77.54720703 343.2178418 78.09441406 343.84521484 78.65820312 C350.62856373 84.77920481 357.22418759 90.89882001 363 98 C363.65742187 98.76957031 364.31484375 99.53914063 364.9921875 100.33203125 C381.68261839 120.14078108 394.52377539 142.36720626 405 166 C405.52980469 167.17820312 406.05960938 168.35640625 406.60546875 169.5703125 C431.82314297 228.92987809 433.78919559 300.92541034 410.39013672 361.02978516 C398.02067565 391.33871659 380.62220142 418.38673071 358 442 C357.44860352 442.58394531 356.89720703 443.16789062 356.32910156 443.76953125 C346.98226202 453.63016152 337.06885445 462.12706391 326 470 C325.36594238 470.45213867 324.73188477 470.90427734 324.07861328 471.37011719 C283.91890224 499.70696144 237.05723965 514.56871657 188 516 C186.25009766 516.061875 186.25009766 516.061875 184.46484375 516.125 C141.20454784 516.90534356 96.92985529 507.01768919 59 486 C58.23075195 485.5757373 57.46150391 485.15147461 56.66894531 484.71435547 C47.01507023 479.35003285 37.74000579 473.77876955 29 467 C27.9790625 466.24332031 26.958125 465.48664063 25.90625 464.70703125 C17.77065341 458.64866019 10.29810563 452.03776893 3 445 C2.44248047 444.46439453 1.88496094 443.92878906 1.31054688 443.37695312 C-5.99851101 436.31964235 -12.83620483 429.0995325 -19 421 C-19.71857178 420.06341553 -19.71857178 420.06341553 -20.45166016 419.10791016 C-28.93104469 407.982514 -36.09001018 396.38311796 -42.76416016 384.09619141 C-43.97315645 381.93568859 -43.97315645 381.93568859 -45.65380859 379.91552734 C-47 378 -47 378 -47 375 C-47.66 374.67 -48.32 374.34 -49 374 C-49.97265625 371.90234375 -49.97265625 371.90234375 -51.0625 368.9375 C-51.71605469 367.16246094 -51.71605469 367.16246094 -52.3828125 365.3515625 C-52.63321289 364.66868164 -52.88361328 363.98580078 -53.14160156 363.28222656 C-54.09670967 360.74287771 -55.10480788 358.22798763 -56.1171875 355.7109375 C-75.99990595 305.58056407 -75.99990595 305.58056407 -70.34765625 289.09765625 C-68.05285209 284.43910531 -64.91631535 281.68530891 -60 280 C-55.66600163 279.18685137 -52.61130588 279.66551188 -48.6875 281.8125 C-47.3571875 282.8953125 -47.3571875 282.8953125 -46 284 C-45.47833252 284.42369873 -44.95666504 284.84739746 -44.41918945 285.28393555 C-42.48054742 287.62811495 -42.18355772 289.66634708 -41.60546875 292.64453125 C-41.26056396 294.35576172 -41.26056396 294.35576172 -40.90869141 296.1015625 C-40.67069824 297.32617188 -40.43270508 298.55078125 -40.1875 299.8125 C-32.6407683 336.56343768 -20.35580669 370.14567884 3 400 C3.70898438 400.95003906 4.41796875 401.90007812 5.1484375 402.87890625 C16.29403954 417.30651363 30.11935322 430.47974858 45 441 C45.59200195 441.42039551 46.18400391 441.84079102 46.79394531 442.27392578 C79.36498987 465.16706305 121.40631707 484.38165364 161.9609375 482.97265625 C164 483 164 483 166 484 C167.7404417 484.08449628 169.48409722 484.10723024 171.2265625 484.09765625 C172.7734375 484.09282227 172.7734375 484.09282227 174.3515625 484.08789062 C175.43179688 484.07951172 176.51203125 484.07113281 177.625 484.0625 C178.71296875 484.05798828 179.8009375 484.05347656 180.921875 484.04882812 C183.61463789 484.03701776 186.30729188 484.02054778 189 484 C189 483.67 189 483.34 189 483 C189.98355469 483.03480469 190.96710938 483.06960938 191.98046875 483.10546875 C236.3588473 484.1808474 281.70899691 465.61154844 316 438 C316.50805176 437.59346191 317.01610352 437.18692383 317.53955078 436.76806641 C324.17962684 431.4213262 330.44197497 425.74803667 336.5 419.75 C337.07540527 419.18385986 337.65081055 418.61771973 338.24365234 418.03442383 C341.05571651 415.20130015 343.51742126 412.37126769 345.78125 409.078125 C346.5134375 408.06234375 347.245625 407.0465625 348 406 C348.66 406 349.32 406 350 406 C350.27602051 405.41710205 350.55204102 404.8342041 350.83642578 404.23364258 C351.95703959 402.08246848 353.19096277 400.22033043 354.6171875 398.26171875 C388.72551935 350.53548836 402.27342475 292.20347684 393.3125 234.125 C392.62868399 230.06258095 391.85178377 226.03034066 391 222 C390.81276367 221.09749512 390.62552734 220.19499023 390.43261719 219.26513672 C389.18643983 213.43780476 387.69422171 207.71235483 386 202 C385.77538086 201.23300781 385.55076172 200.46601563 385.31933594 199.67578125 C377.09780505 172.3697788 362.82188627 143.51891406 343.26538086 122.56958008 C342 121 342 121 342 119 C341.34 119 340.68 119 340 119 C338.80078125 117.77734375 338.80078125 117.77734375 337.3125 115.9375 C327.66731465 104.6480211 317.06883589 94.63841742 305 86 C304.02289062 85.28585937 303.04578125 84.57171875 302.0390625 83.8359375 C297.8981248 80.40109834 297.8981248 80.40109834 293 79 C292.40582275 78.4016333 291.81164551 77.8032666 291.19946289 77.18676758 C287.30092034 73.31072743 282.28906044 71.18640665 277.4375 68.6875 C276.31504883 68.10863037 275.19259766 67.52976074 274.03613281 66.93334961 C264.57636883 62.1408603 255.09954755 58.20260309 245 55 C244.19208008 54.73638672 243.38416016 54.47277344 242.55175781 54.20117188 C186.96088766 36.26863312 126.24198393 41.77611258 74.4296875 68.3125 C60.94376367 75.42674657 48.66685843 84.16198003 37.6015625 94.671875 C36 96 36 96 34 96 C34 96.66 34 97.32 34 98 C32.70766393 99.37310707 31.37562854 100.71034824 30 102 C30.77594513 102.00586624 31.55189026 102.01173248 32.35134888 102.01777649 C39.67833449 102.07577718 47.00498291 102.14789562 54.33166695 102.23571491 C58.09804249 102.2803658 61.86431118 102.3196332 65.63085938 102.34643555 C69.2685524 102.37252177 72.90583311 102.41296081 76.54327011 102.46318626 C77.92821991 102.47981923 79.31324098 102.49135572 80.69827652 102.49761391 C82.64418174 102.50729302 84.589955 102.53708156 86.53564453 102.56762695 C87.64150909 102.57873001 88.74737366 102.58983307 89.88674927 102.60127258 C94.53485681 103.19657572 97.83847354 104.96404397 101.3125 108.0625 C103.74040199 112.2888479 104.31065246 116.15079094 104 121 C102.79743513 124.94381523 100.60469613 127.48151929 97.47621155 130.16395569 C92.82752845 132.61926891 89.12127094 132.55532609 83.94311523 132.50170898 C82.94565277 132.50711197 81.94819031 132.51251495 80.92050171 132.51808167 C77.63289458 132.53055967 74.34616466 132.51408464 71.05859375 132.49609375 C68.76986139 132.49624875 66.48112877 132.49773783 64.19239807 132.50050354 C59.40003836 132.50188708 54.6079781 132.48933557 49.81567383 132.46655273 C43.67308954 132.43815255 37.53100215 132.44091055 31.388381 132.45364285 C26.66404476 132.46059734 21.93982337 132.45281356 17.21550179 132.44038582 C14.95048526 132.43587024 12.68545641 132.43553544 10.42043877 132.43945122 C7.25586533 132.44236151 4.09197709 132.42586497 0.92749023 132.40405273 C-0.47609489 132.41080521 -0.47609489 132.41080521 -1.90803528 132.41769409 C-6.76179987 132.36210736 -10.07151835 132.17170451 -14 129 C-17.69009327 124.89989636 -19.11816191 121.9504207 -19.14717102 116.46562195 C-19.15432632 115.53619781 -19.16148163 114.60677368 -19.16885376 113.64918518 C-19.17154266 112.6314653 -19.17423157 111.61374542 -19.17700195 110.56518555 C-19.18685875 108.95501556 -19.18685875 108.95501556 -19.19691467 107.31231689 C-19.21665389 103.7537835 -19.22831096 100.19529229 -19.23828125 96.63671875 C-19.24235678 95.42234446 -19.2464323 94.20797016 -19.25063133 92.95679665 C-19.2714935 86.53085118 -19.28579531 80.10492709 -19.29516602 73.67895508 C-19.30623809 67.03754149 -19.34064716 60.39647042 -19.38033772 53.75516033 C-19.40646311 48.6516507 -19.41485419 43.54822128 -19.41844749 38.44465065 C-19.42332301 35.99622143 -19.43496426 33.54779601 -19.45348549 31.09943199 C-19.47779201 27.67368305 -19.4769271 24.24880654 -19.4699707 20.82299805 C-19.48278076 19.81135086 -19.49559082 18.79970367 -19.50878906 17.75740051 C-19.46604082 11.98350537 -18.93057511 8.54334716 -15 4 C-10.27817679 -0.172774 -6.08993778 -1.08047283 0 0 Z " fill="#015AD2" transform="translate(339,221)"/>
<path d="M0 0 C1.16909912 0.57000732 2.33819824 1.14001465 3.54272461 1.72729492 C4.79130395 2.32338384 6.04058655 2.91800169 7.29052734 3.51123047 C9.87902145 4.74123026 12.46440217 5.97743871 15.04760742 7.21850586 C20.81274669 9.98313313 26.61582822 12.66589711 32.41772461 15.35229492 C33.54863525 15.87758789 34.6795459 16.40288086 35.84472656 16.9440918 C44.70102506 21.05456346 53.5743301 25.12737338 62.45428467 29.1864624 C64.7097354 30.2179248 66.96441143 31.25106572 69.21899414 32.28442383 C75.73646411 35.26838982 82.25929022 38.23195416 88.82788086 41.10229492 C89.85091309 41.5532251 90.87394531 42.00415527 91.92797852 42.46875 C93.76769009 43.27697509 95.61210029 44.07463407 97.4621582 44.85888672 C103.59181125 47.56263624 107.22137166 50.73531013 109.85522461 57.03979492 C110.11528683 59.68045425 110.11528683 59.68045425 110.12937927 62.74395752 C110.1393544 63.90746231 110.14932953 65.0709671 110.15960693 66.26972961 C110.16027161 67.54253281 110.16093628 68.815336 110.16162109 70.12670898 C110.16924462 71.48376419 110.17767245 72.84081509 110.18684387 74.19786072 C110.20878017 77.88193617 110.21758688 81.56592861 110.22267032 85.25006199 C110.22631572 87.55374953 110.23255681 89.8574154 110.23967171 92.16109467 C110.26416573 100.20384168 110.27721744 108.24652424 110.28076172 116.28930664 C110.28439428 123.77614033 110.31426941 131.26256338 110.3561663 138.74927163 C110.39090988 145.18425782 110.40631088 151.61910823 110.40700775 158.05418754 C110.40779936 161.89429089 110.41648337 165.73397612 110.44500542 169.57398224 C110.47125556 173.18899377 110.47335353 176.80324269 110.45734978 180.41830635 C110.45468171 182.36816845 110.47667301 184.31801616 110.49954224 186.26774597 C110.44044996 193.37786617 109.81776473 198.66948445 104.85522461 204.03979492 C101.92163086 206.07885742 101.92163086 206.07885742 98.41772461 207.66479492 C97.73709961 207.982146 97.05647461 208.29949707 96.35522461 208.62646484 C94.77139849 209.36217653 93.18260283 210.08724522 91.59008789 210.80395508 C88.56043725 212.17300449 85.54921226 213.57812955 82.53881836 214.98901367 C78.87281021 216.70672723 75.20625364 218.42297858 71.53417969 220.12768555 C61.39315435 224.83678089 51.29002721 229.62293289 41.19573975 234.43130493 C33.7526576 237.97537506 26.30448869 241.50874088 18.85522461 245.03979492 C18.14386353 245.37720703 17.43250244 245.71461914 16.69958496 246.06225586 C12.38220665 248.10887668 8.05839509 250.14109633 3.73022461 252.16479492 C2.69478516 252.65544434 1.6593457 253.14609375 0.5925293 253.65161133 C-6.99976539 257.17909632 -11.97630539 258.90339819 -20.10961914 256.21704102 C-26.78503038 253.62784917 -33.19947263 250.45920358 -39.64477539 247.35229492 C-41.23514448 246.59224322 -42.8258903 245.83297934 -44.41699219 245.07446289 C-47.70039701 243.5087221 -50.98233145 241.93995683 -54.26342773 240.36938477 C-61.09721367 237.10274729 -67.95512595 233.88767647 -74.81262207 230.67120361 C-87.83394971 224.56076274 -100.84351541 218.42581645 -113.79418945 212.16674805 C-116.01536015 211.10184111 -118.24591 210.06008877 -120.48071289 209.02416992 C-121.74391926 208.42560299 -123.00695551 207.82667682 -124.26977539 207.22729492 C-125.30360352 206.74647461 -126.33743164 206.2656543 -127.40258789 205.77026367 C-130.82666313 203.60948684 -132.84468134 201.36715518 -135.14477539 198.03979492 C-136.01507172 194.10569644 -136.27283905 190.33660494 -136.28521729 186.31617737 C-136.29092743 185.19896301 -136.29663757 184.08174866 -136.30252075 182.93067932 C-136.30363861 181.71960007 -136.30475647 180.50852081 -136.3059082 179.26074219 C-136.31087311 177.97388519 -136.31583801 176.6870282 -136.32095337 175.36117554 C-136.33402106 171.84257849 -136.34051074 168.32400047 -136.34496403 164.80538297 C-136.34790259 162.60455081 -136.35200876 160.40372377 -136.3564682 158.20289421 C-136.37012547 151.30925318 -136.37980197 144.41562395 -136.38367009 137.52197033 C-136.38815301 129.57784452 -136.40571907 121.63389057 -136.43467069 113.68981701 C-136.45630744 107.53846625 -136.46637536 101.38716381 -136.46771121 95.23577541 C-136.46875739 91.56630671 -136.47462576 87.89699996 -136.49253082 84.22757149 C-136.51211771 80.13435592 -136.50771464 76.04149948 -136.5012207 71.94824219 C-136.51043549 70.73918716 -136.51965027 69.53013214 -136.52914429 68.28443909 C-136.49141216 60.69598196 -135.85317982 55.63468513 -131.19946289 49.45776367 C-126.6337108 45.84369648 -121.57002068 43.71086486 -116.26977539 41.35229492 C-115.04096603 40.79537471 -113.81271032 40.2372316 -112.58496094 39.67797852 C-109.89683323 38.45462523 -107.20630739 37.23675001 -104.5144043 36.02172852 C-99.9247841 33.9454563 -95.35203671 31.83345308 -90.78149414 29.71557617 C-89.98109207 29.34474915 -89.18069 28.97392212 -88.35603333 28.59185791 C-86.71703317 27.83247544 -85.07804092 27.07307589 -83.4390564 26.31365967 C-70.66749572 20.40145558 -57.87891803 14.52578424 -45.0718689 8.69085693 C-43.68847458 8.06048225 -42.30534588 7.42952422 -40.92251587 6.7979126 C-36.67246104 4.85762013 -32.41176699 2.94265074 -28.14477539 1.03979492 C-27.04311035 0.53657715 -25.94144531 0.03335937 -24.80639648 -0.48510742 C-14.89752837 -4.86737385 -9.79008437 -4.63915107 0 0 Z M-19.30883789 24.91870117 C-20.16727295 25.33788818 -21.02570801 25.7570752 -21.91015625 26.18896484 C-22.85383057 26.65536377 -23.79750488 27.1217627 -24.76977539 27.60229492 C-35.47539149 32.81660465 -46.27934677 37.78024256 -57.14434814 42.65188599 C-65.47065478 46.38525557 -73.70517969 50.24209324 -81.83372498 54.39152527 C-85.2176476 56.11271705 -88.59160308 57.69944781 -92.14477539 59.03979492 C-92.14477539 59.69979492 -92.14477539 60.35979492 -92.14477539 61.03979492 C-78.21883559 67.80340605 -64.28287066 74.53123342 -50.1784668 80.91699219 C-44.7818032 83.36133167 -39.4170634 85.8576434 -34.07836914 88.42651367 C-32.90089111 88.98717529 -31.72341309 89.54783691 -30.51025391 90.12548828 C-28.23262151 91.21149374 -25.96063664 92.30944727 -23.6953125 93.42089844 C-22.66543213 93.90872803 -21.63555176 94.39655762 -20.57446289 94.89916992 C-19.66937988 95.33712891 -18.76429688 95.77508789 -17.83178711 96.22631836 C-12.46935335 97.84976278 -8.12402648 95.78604775 -3.26196289 93.47729492 C-2.11155518 92.93564697 -0.96114746 92.39399902 0.22412109 91.8359375 C1.47620359 91.23732368 2.72823673 90.63860661 3.98022461 90.03979492 C5.28726463 89.42149603 6.59464553 88.8039173 7.90234375 88.18701172 C10.71463591 86.8587267 13.52474494 85.52596672 16.33325195 84.18969727 C23.51633308 80.77248806 30.71062169 77.37896634 37.90325928 73.98193359 C40.25612561 72.86959739 42.60781444 71.7548067 44.95922852 70.6394043 C46.42325657 69.94604091 47.88728643 69.25268136 49.35131836 68.55932617 C50.00747635 68.24735794 50.66363434 67.93538971 51.3396759 67.6139679 C55.47442588 65.65783782 59.64240857 63.81891651 63.85522461 62.03979492 C63.85761334 60.13151311 63.85761334 60.13151311 62.85522461 58.03979492 C60.66325052 56.69131563 58.64016666 55.64189271 56.30444336 54.60620117 C55.62679932 54.29181595 54.94915527 53.97743073 54.25097656 53.65351868 C52.02091146 52.62274898 49.78210978 51.61263529 47.54272461 50.60229492 C45.99692343 49.8922503 44.45176192 49.1808115 42.90722656 48.46801758 C39.75647927 47.0163322 36.60234539 45.57243683 33.44506836 44.13500977 C29.22836962 42.21364513 25.02351035 40.26787997 20.82397461 38.30932617 C20.20029495 38.01854691 19.5766153 37.72776764 18.93403625 37.42817688 C18.32448593 37.1439537 17.71493561 36.85973053 17.08691406 36.56689453 C12.72650152 34.53431813 8.36238894 32.50994346 3.9934082 30.49584961 C1.75150745 29.45565231 -0.48453507 28.40279094 -2.71655273 27.34155273 C-3.8826709 26.79080078 -5.04878906 26.24004883 -6.25024414 25.67260742 C-7.30751709 25.16874512 -8.36479004 24.66488281 -9.45410156 24.14575195 C-13.49821505 22.48348591 -15.55099052 23.05783222 -19.30883789 24.91870117 Z M-111.14477539 79.03979492 C-111.14477539 114.01979492 -111.14477539 148.99979492 -111.14477539 185.03979492 C-100.58438504 190.3199901 -90.01886964 195.57840399 -79.39477539 200.72729492 C-78.34592163 201.2356337 -78.34592163 201.2356337 -77.27587891 201.75424194 C-67.69029807 206.39551432 -58.08857693 211.00212342 -48.44055176 215.51235962 C-46.69773497 216.32752423 -44.95686733 217.14685204 -43.21606445 217.96630859 C-42.15097656 218.46106689 -41.08588867 218.9558252 -39.98852539 219.46557617 C-39.07264648 219.89265869 -38.15676758 220.31974121 -37.21313477 220.75976562 C-33.27388887 222.40310317 -29.1940216 223.69004618 -25.14477539 225.03979492 C-25.14477539 190.38979492 -25.14477539 155.73979492 -25.14477539 120.03979492 C-37.84260451 113.67162842 -37.84260451 113.67162842 -50.64477539 107.53979492 C-56.33303019 104.8679607 -61.98045626 102.13806376 -67.58227539 99.28979492 C-75.20723403 95.42553064 -82.95383028 91.82417298 -90.70727539 88.22729492 C-91.32045624 87.94253296 -91.93363708 87.657771 -92.56539917 87.36437988 C-98.72826765 84.50480725 -104.89879647 81.71664303 -111.14477539 79.03979492 Z M78.14819336 82.16088867 C77.44798569 82.49219284 76.74777802 82.82349701 76.02635193 83.1648407 C73.69761194 84.26717768 71.37016374 85.37221433 69.04272461 86.47729492 C67.42285712 87.24489378 65.80290152 88.01230673 64.18286133 88.77954102 C61.65610309 89.97623068 59.12942362 91.17308407 56.60308838 92.3706665 C50.72120178 95.15848843 44.83459056 97.93611326 38.94506836 100.70776367 C37.34129318 101.46302066 35.73753322 102.21830995 34.13378906 102.97363281 C31.83796833 104.05490416 29.54196801 105.13578091 27.24520874 106.21505737 C25.1066688 107.22019238 22.96914276 108.22745702 20.83178711 109.23510742 C20.23079697 109.51690353 19.62980682 109.79869965 19.01060486 110.08903503 C12.23037871 113.29045252 5.56784858 116.68348294 -1.14477539 120.03979492 C-1.14477539 154.68979492 -1.14477539 189.33979492 -1.14477539 225.03979492 C2.92759952 223.68233662 6.50080079 222.36753172 10.33569336 220.56323242 C11.93223755 219.81626099 11.93223755 219.81626099 13.56103516 219.05419922 C14.70999268 218.5131958 15.8589502 217.97219238 17.04272461 217.41479492 C19.55219731 216.23959439 22.06299767 215.06724621 24.57397461 213.89526367 C25.23407028 213.58690079 25.89416595 213.2785379 26.57426453 212.96083069 C35.42717186 208.83097004 44.31980586 204.78749433 53.21078491 200.74041748 C61.27214054 197.07076246 69.32117133 193.37615244 77.34350586 189.62182617 C78.08102585 189.27834641 78.81854584 188.93486664 79.57841492 188.58097839 C82.94771343 187.16424827 82.94771343 187.16424827 85.85522461 185.03979492 C85.95061651 183.66103467 85.97711083 182.27742576 85.97547913 180.89537048 C85.97685379 180.00209549 85.97822845 179.1088205 85.97964478 178.18847656 C85.9760495 177.20089355 85.97245422 176.21331055 85.96875 175.19580078 C85.96889603 174.16177628 85.96904205 173.12775177 85.9691925 172.06239319 C85.96849288 168.62645406 85.96069819 165.19056839 85.95288086 161.75463867 C85.95101685 159.37952199 85.94959287 157.00440492 85.94859314 154.62928772 C85.94476658 148.36403348 85.93493511 142.09880225 85.92388916 135.83355713 C85.91367801 129.44592602 85.90909616 123.05829121 85.90405273 116.6706543 C85.89331297 104.12702466 85.87642588 91.58341101 85.85522461 79.03979492 C83.31846036 79.03979492 80.44685389 81.06703017 78.14819336 82.16088867 Z " fill="#015AD1" transform="translate(525.144775390625,369.960205078125)"/>
<path d="M0 0 C0.78375 0.04125 1.5675 0.0825 2.375 0.125 C1.611875 0.681875 0.84875 1.23875 0.0625 1.8125 C-3.23939506 4.65366552 -5.34025561 6.8502388 -5.89979172 11.32025146 C-6.01647736 14.12134429 -6.03016176 16.90742765 -6.01318359 19.7109375 C-6.01844055 20.77652893 -6.02369751 21.84212036 -6.02911377 22.94000244 C-6.04231077 26.46015101 -6.03357641 29.97984688 -6.0234375 33.5 C-6.02545831 35.94710375 -6.02836981 38.39420691 -6.03213501 40.84130859 C-6.03655797 45.96913387 -6.030128 51.09680233 -6.01611328 56.22460938 C-5.99902165 62.79878216 -6.00886295 69.37258752 -6.02683067 75.94674683 C-6.03766912 80.99962128 -6.03422184 86.05240857 -6.0264473 91.10528564 C-6.02444547 93.52939904 -6.02690394 95.95352034 -6.03388596 98.37762451 C-6.04150116 101.76498389 -6.02989448 105.15174751 -6.01318359 108.5390625 C-6.01925629 109.54181213 -6.02532898 110.54456177 -6.03158569 111.57769775 C-5.9747457 117.79423374 -5.22934786 121.16805209 -1.0508728 125.9122467 C2.88692696 127.88084936 6.84846141 127.54985443 11.18896484 127.52905273 C12.18452896 127.53591599 13.18009308 127.54277924 14.20582581 127.54985046 C17.49934116 127.56816282 20.79238211 127.56427414 24.0859375 127.55859375 C26.37513382 127.56315381 28.66432878 127.56845886 30.95352173 127.57447815 C35.75357623 127.58341829 40.55346444 127.58097623 45.35351562 127.57104492 C51.50284826 127.55956148 57.65160615 127.57975309 63.80086327 127.60896206 C68.52952722 127.62731576 73.25805329 127.62703308 77.98674393 127.62132454 C80.2537377 127.62117118 82.52074073 127.62722712 84.78770065 127.63961601 C87.95958138 127.65450585 91.13039848 127.6438624 94.30224609 127.62670898 C95.23751633 127.63637695 96.17278656 127.64604492 97.13639832 127.65600586 C102.84872863 127.59137094 105.95003828 126.79989724 110.375 123.125 C110.08662288 125.9126455 109.62312747 126.91762399 107.44567871 128.73745728 C103.08031988 130.71002505 99.17035023 130.5438855 94.43164062 130.51318359 C92.93566597 130.52106903 92.93566597 130.52106903 91.4094696 130.52911377 C88.11656989 130.54230517 84.82415454 130.53357848 81.53125 130.5234375 C79.24108792 130.52545848 76.95092647 130.52837011 74.6607666 130.53213501 C69.86248646 130.53655721 65.06437393 130.53013049 60.26611328 130.51611328 C54.11567086 130.49902165 47.96562119 130.50886336 41.81519318 130.52683067 C37.08657878 130.5376712 32.3580575 130.53422089 27.62944031 130.5264473 C25.36162774 130.52444604 23.09380672 130.52690193 20.82600403 130.53388596 C17.65656134 130.54150463 14.4877547 130.5298898 11.31835938 130.51318359 C10.38106491 130.51925629 9.44377045 130.52532898 8.47807312 130.53158569 C3.618882 130.48413569 0.3070825 130.30310253 -3.625 127.125 C-7.31509327 123.02489636 -8.74316191 120.0754207 -8.77217102 114.59062195 C-8.77932632 113.66119781 -8.78648163 112.73177368 -8.79385376 111.77418518 C-8.79788712 110.24760536 -8.79788712 110.24760536 -8.80200195 108.69018555 C-8.80857315 107.61673889 -8.81514435 106.54329224 -8.82191467 105.43731689 C-8.84165389 101.8787835 -8.85331096 98.32029229 -8.86328125 94.76171875 C-8.86735678 93.54734446 -8.8714323 92.33297016 -8.87563133 91.08179665 C-8.8964935 84.65585118 -8.91079531 78.22992709 -8.92016602 71.80395508 C-8.93123809 65.16254149 -8.96564716 58.52147042 -9.00533772 51.88016033 C-9.03146311 46.7766507 -9.03985419 41.67322128 -9.04344749 36.56965065 C-9.04832301 34.12122143 -9.05996426 31.67279601 -9.07848549 29.22443199 C-9.10279201 25.79868305 -9.1019271 22.37380654 -9.0949707 18.94799805 C-9.10778076 17.93635086 -9.12059082 16.92470367 -9.13378906 15.88240051 C-9.08832931 9.74226822 -7.82049125 0.37240435 0 0 Z " fill="#0C47B0" transform="translate(328.625,222.875)"/>
<path d="M0 0 C-0.61520508 0.26627197 -1.23041016 0.53254395 -1.86425781 0.80688477 C-4.66991819 2.03641172 -7.45952002 3.29892093 -10.25 4.5625 C-11.21808594 4.98080078 -12.18617188 5.39910156 -13.18359375 5.83007812 C-19.3146453 8.64190522 -22.35945856 10.71706462 -25 17 C-25.33 17 -25.66 17 -26 17 C-26.33 63.2 -26.66 109.4 -27 157 C-30.19695783 153.80304217 -30.12719644 150.95155962 -30.14044189 146.637146 C-30.14615204 145.52405563 -30.15186218 144.41096527 -30.15774536 143.2641449 C-30.15886322 142.04227982 -30.15998108 140.82041473 -30.16113281 139.56152344 C-30.16609772 138.27510452 -30.17106262 136.98868561 -30.17617798 135.6632843 C-30.18929557 132.13211334 -30.19574591 128.60096138 -30.20018864 125.06976986 C-30.20312095 122.86242098 -30.20722611 120.65507729 -30.21169281 118.44773102 C-30.22536728 111.53806163 -30.23503366 104.62840409 -30.2388947 97.71872211 C-30.24337271 89.74909605 -30.26090878 81.77964174 -30.2898953 73.81006789 C-30.31153443 67.64603887 -30.3216002 61.48205808 -30.32293582 55.3179915 C-30.32398244 51.63841794 -30.32985931 47.95900583 -30.34775543 44.27947235 C-30.36734609 40.17156106 -30.36293828 36.06400758 -30.35644531 31.95605469 C-30.3656601 30.74228653 -30.37487488 29.52851837 -30.3843689 28.27796936 C-30.34639929 20.61219332 -29.76307403 15.47038027 -24.87890625 9.3359375 C-21.16184465 6.3199228 -17.31250641 4.51059598 -12.9375 2.625 C-12.13505859 2.25761719 -11.33261719 1.89023437 -10.50585938 1.51171875 C-9.72919922 1.17011719 -8.95253906 0.82851563 -8.15234375 0.4765625 C-7.45101318 0.16799316 -6.74968262 -0.14057617 -6.02709961 -0.45849609 C-3.65153319 -1.09308676 -2.30070166 -0.7829292 0 0 Z " fill="#1654B7" transform="translate(419,410)"/>
<path d="M0 0 C0.65198364 0.54853638 0.65198364 0.54853638 1.31713867 1.1081543 C7.18915239 5.79932157 13.46784606 8.78019826 20.3125 11.8125 C22.62545688 12.85575849 24.93795324 13.90003857 27.25 14.9453125 C28.95736328 15.71343262 28.95736328 15.71343262 30.69921875 16.49707031 C36.21918936 19.01045338 41.67905931 21.65039661 47.12426758 24.3215332 C50.74062184 26.0644785 53.97182445 27.46976864 58 28 C58 28.66 58 29.32 58 30 C58.82113281 30.24911133 59.64226562 30.49822266 60.48828125 30.75488281 C64.55703574 32.19750294 68.32559284 34.00479565 72.1875 35.921875 C72.96706055 36.30434387 73.74662109 36.68681274 74.54980469 37.08087158 C77.03498339 38.3003329 79.517754 39.5245813 82 40.75 C103.52163068 53.37992576 103.52163068 53.37992576 126.875 55.14453125 C134.32302195 52.47018023 141.34127945 48.92335354 148.37890625 45.3359375 C153.98806977 42.48433056 159.64609694 39.73571787 165.3125 37 C166.3216748 36.50677246 167.33084961 36.01354492 168.37060547 35.50537109 C169.31693848 35.04984863 170.26327148 34.59432617 171.23828125 34.125 C172.08430908 33.71507812 172.93033691 33.30515625 173.80200195 32.8828125 C176 32 176 32 179 32 C179 32.66 179 33.32 179 34 C165.26871455 40.66605065 151.51555814 47.28673511 137.6875 53.75 C136.6042041 54.26272461 135.5209082 54.77544922 134.40478516 55.30371094 C133.38819824 55.77583008 132.37161133 56.24794922 131.32421875 56.734375 C129.9952356 57.35650879 129.9952356 57.35650879 128.6394043 57.99121094 C120.16671722 61.2295 114.34906988 58.90242548 106.37109375 55.41259766 C102.05301841 53.43697837 97.77735718 51.37436716 93.5 49.3125 C91.90963091 48.55244829 90.31888509 47.79318442 88.7277832 47.03466797 C85.44437838 45.46892718 82.16244394 43.9001619 78.88134766 42.32958984 C72.04756172 39.06295237 65.18964944 35.84788155 58.33215332 32.63140869 C44.52412811 26.15179893 30.7334392 19.63650259 17 13 C15.87851562 12.46076904 15.87851562 12.46076904 14.734375 11.91064453 C12.73604504 10.94748961 10.7421754 9.97580775 8.75 9 C7.69296875 8.484375 6.6359375 7.96875 5.546875 7.4375 C3.22775523 6.12854896 1.60654768 5.11272023 0 3 C0 2.01 0 1.02 0 0 Z " fill="#1150B7" transform="translate(392,568)"/>
<path d="M0 0 C5.04595567 1.56531573 8.56852951 4.61761937 12.5625 7.9375 C13.26922852 8.51943115 13.97595703 9.1013623 14.70410156 9.70092773 C32.23449413 24.2441763 48.36642703 39.9505537 61 59 C61.42120117 59.62277832 61.84240234 60.24555664 62.27636719 60.88720703 C89 100.60071982 89 100.60071982 89 118 C88.34 118 87.68 118 87 118 C86.70609375 117.13503906 86.4121875 116.27007812 86.109375 115.37890625 C77.36834602 90.52033852 64.97178322 65.85859862 47.5 45.9375 C45 43 45 43 45 41 C44.34 41 43.68 41 43 41 C41.80078125 39.77734375 41.80078125 39.77734375 40.3125 37.9375 C29.47330431 25.25045806 17.47464429 14.51911466 3.75 5.0625 C1 3 1 3 0 0 Z " fill="#104BAF" transform="translate(636,299)"/>
<path d="M0 0 C1.88207625 0.9155775 3.76493042 1.8295571 5.6484375 2.7421875 C6.65358398 3.23041992 7.65873047 3.71865234 8.69433594 4.22167969 C14.30848383 6.91929757 19.96918707 9.51618696 25.625 12.125 C36.1581771 16.99070438 46.63408421 21.95952767 57.05761719 27.05615234 C58.02860352 27.52746582 58.99958984 27.9987793 60 28.484375 C61.27230469 29.10650879 61.27230469 29.10650879 62.5703125 29.74121094 C64.67275558 30.66147522 66.63493013 31.27643684 68.875 31.75 C68.875 32.41 68.875 33.07 68.875 33.75 C66.235 33.75 63.595 33.75 60.875 33.75 C60.875 33.09 60.875 32.43 60.875 31.75 C32.49435475 18.40629153 32.49435475 18.40629153 4.03759766 5.22607422 C1.80044264 4.18193038 -0.42271633 3.10755009 -2.63525391 2.01220703 C-4.35687744 1.17278564 -4.35687744 1.17278564 -6.11328125 0.31640625 C-7.14622314 -0.19849365 -8.17916504 -0.71339355 -9.2434082 -1.24389648 C-14.48477577 -3.07391222 -18.2449293 -0.87493864 -23.0007019 1.37826538 C-23.74039215 1.73554718 -24.4800824 2.09282898 -25.2421875 2.4609375 C-26.01756866 2.8297403 -26.79294983 3.19854309 -27.59182739 3.57852173 C-30.06376222 4.75543379 -32.53198609 5.93989084 -35 7.125 C-37.46155219 8.30148779 -39.92385571 9.4763779 -42.38674927 10.65005493 C-43.91590424 11.37935703 -45.44417732 12.11051216 -46.97140503 12.84384155 C-49.0178309 13.82304549 -51.0709246 14.78697544 -53.125 15.75 C-53.76407288 16.06318176 -54.40314575 16.37636353 -55.06158447 16.69903564 C-59.58166542 18.81965828 -59.58166542 18.81965828 -62.5625 18.4375 C-63.078125 18.210625 -63.59375 17.98375 -64.125 17.75 C-55.47741683 13.35918443 -46.7414888 9.19203422 -37.9375 5.125 C-36.7193326 4.56004338 -35.50123343 3.99493962 -34.28320312 3.4296875 C-31.95017959 2.34918288 -29.61451176 1.27436428 -27.27587891 0.20605469 C-25.32823645 -0.69397162 -23.39044692 -1.61612817 -21.47021484 -2.57324219 C-13.05441514 -6.67636278 -7.95979418 -3.94948137 0 0 Z " fill="#104FB6" transform="translate(525.125,396.25)"/>
<path d="M0 0 C3 1 3 1 4.20751953 3.00268555 C4.59536621 3.8719165 4.98321289 4.74114746 5.3828125 5.63671875 C5.82294678 6.59956787 6.26308105 7.56241699 6.71655273 8.55444336 C7.18134033 9.58835205 7.64612793 10.62226074 8.125 11.6875 C12.4540328 21.00152292 16.99079823 29.6431939 23 38 C23.4655127 38.65049316 23.93102539 39.30098633 24.41064453 39.97119141 C30.48785364 48.3993365 36.77933993 56.51108011 44 64 C44.53463867 64.56041992 45.06927734 65.12083984 45.62011719 65.69824219 C54.18904483 74.64361915 63.10007339 82.56865974 73 90 C74.67171015 91.32700442 76.3402782 92.65803163 78 94 C77.67 94.66 77.34 95.32 77 96 C69.13070215 90.49622254 61.78296419 84.57306523 54.5234375 78.30029297 C52.97463001 76.97834606 51.40131068 75.69033477 49.82421875 74.40234375 C47.51586674 72.43880781 45.56751663 70.55735478 43.625 68.25 C41.19167551 65.39071061 38.71737482 62.58670881 36.1875 59.8125 C24.01279253 46.06610582 14.51498468 31.00710467 5.9375 14.8125 C5.45998291 13.9153125 4.98246582 13.018125 4.49047852 12.09375 C4.04889404 11.24425781 3.60730957 10.39476562 3.15234375 9.51953125 C2.76038818 8.76776611 2.36843262 8.01600098 1.96459961 7.24145508 C0.9309622 4.83957578 0.42424348 2.57408385 0 0 Z " fill="#0F4CB3" transform="translate(311,572)"/>
<path d="M0 0 C0.78375 0.04125 1.5675 0.0825 2.375 0.125 C1.611875 0.681875 0.84875 1.23875 0.0625 1.8125 C-3.24766501 4.66078152 -5.33537041 6.85731515 -5.90720177 11.33452797 C-6.03527804 14.15682858 -6.06138497 16.96504355 -6.05737305 19.7902832 C-6.07266052 21.40071754 -6.07266052 21.40071754 -6.08825684 23.04368591 C-6.11841959 26.58777055 -6.12765806 30.13158504 -6.13671875 33.67578125 C-6.15356295 36.13487143 -6.17171283 38.59395298 -6.19111633 41.05302429 C-6.23865029 47.5220368 -6.2684379 53.99101434 -6.29455566 60.46014404 C-6.32434388 67.06269232 -6.37088023 73.66512008 -6.41601562 80.26757812 C-6.5020875 93.21998659 -6.56998446 106.1724243 -6.625 119.125 C-7.285 119.125 -7.945 119.125 -8.625 119.125 C-8.71851725 104.75608641 -8.7887492 90.38722014 -8.83224869 76.0180645 C-8.853126 69.34590676 -8.88144684 62.67399315 -8.92675781 56.00195312 C-8.9702094 49.56343704 -8.99413605 43.12511761 -9.00450897 36.68646622 C-9.01190148 34.22965524 -9.02633718 31.77285507 -9.04792023 29.31612778 C-9.07694397 25.8757168 -9.08095628 22.43611911 -9.07910156 18.99560547 C-9.09348267 17.97924515 -9.10786377 16.96288483 -9.12268066 15.91572571 C-9.08679639 9.76679793 -7.84325763 0.37348846 0 0 Z " fill="#1358BF" transform="translate(328.625,222.875)"/>
<path d="M0 0 C23.58925147 9.89056059 42.6141315 55.80860939 51.70019531 77.42993164 C52.04663086 78.2780542 52.39306641 79.12617676 52.75 80 C53.07323242 80.78173584 53.39646484 81.56347168 53.72949219 82.36889648 C55.77124757 87.60415217 56.57745285 92.39569045 57 98 C55.15752851 95.23629276 54.08275746 92.88060023 52.8984375 89.80078125 C52.49496094 88.76445557 52.09148438 87.72812988 51.67578125 86.66040039 C51.24652344 85.55559326 50.81726563 84.45078613 50.375 83.3125 C46.39598839 73.23811847 42.12283679 63.53709429 37 54 C36.62939453 53.29359375 36.25878906 52.5871875 35.87695312 51.859375 C27.96632129 36.80153337 18.76605486 22.86005699 7.47680664 10.1081543 C5.21130878 7.53820218 3.33973486 5.16869873 2 2 C1.34 2 0.68 2 0 2 C0 1.34 0 0.68 0 0 Z " fill="#0E48AB" transform="translate(694,313)"/>
<path d="M0 0 C-0.61520508 0.26627197 -1.23041016 0.53254395 -1.86425781 0.80688477 C-4.66991819 2.03641172 -7.45952002 3.29892093 -10.25 4.5625 C-11.21808594 4.98080078 -12.18617188 5.39910156 -13.18359375 5.83007812 C-19.3146453 8.64190522 -22.35945856 10.71706462 -25 17 C-25.33 17 -25.66 17 -26 17 C-26.33 63.2 -26.66 109.4 -27 157 C-28.97808425 153.0438315 -29.25450049 151.57394157 -29.27415466 147.32707214 C-29.28412979 146.17053635 -29.29410492 145.01400055 -29.30438232 143.82241821 C-29.305047 142.55739471 -29.30571167 141.29237122 -29.30639648 139.98901367 C-29.31402 138.64018801 -29.32244783 137.29136669 -29.33161926 135.94255066 C-29.35355362 132.28126885 -29.36236182 128.62007055 -29.36744571 124.95873046 C-29.37109085 122.6697915 -29.37733175 120.38087437 -29.3844471 118.09194374 C-29.40893888 110.10222031 -29.42199269 102.11256178 -29.42553711 94.12280273 C-29.42917116 86.68252724 -29.45905752 79.24266456 -29.50094169 71.80251521 C-29.53566748 65.40915779 -29.55108595 59.01593701 -29.55178314 52.62248594 C-29.55257526 48.8064468 -29.56128267 44.99082816 -29.58978081 41.1748867 C-29.61600097 37.58367905 -29.6181456 33.99323932 -29.60212517 30.40197945 C-29.59945273 28.46265963 -29.62146807 26.52335452 -29.64431763 24.58416748 C-29.58377326 17.36002822 -29.02659832 13.32727693 -24 8 C-21.65991211 6.36328125 -21.65991211 6.36328125 -19.27734375 5.3125 C-18.40916016 4.92449219 -17.54097656 4.53648437 -16.64648438 4.13671875 C-15.30553711 3.57404297 -15.30553711 3.57404297 -13.9375 3 C-13.03966797 2.59394531 -12.14183594 2.18789063 -11.21679688 1.76953125 C-3.96206289 -1.39126735 -3.96206289 -1.39126735 0 0 Z " fill="#034DC4" transform="translate(419,410)"/>
<path d="M0 0 C0 0.66 0 1.32 0 2 C-18.99764297 6.36985741 -37.50223375 9.30801247 -57 10 C-58.76150391 10.06380859 -58.76150391 10.06380859 -60.55859375 10.12890625 C-68.90384314 10.27099336 -77.17955365 9.72680416 -85.5 9.125 C-86.62277344 9.04660889 -87.74554688 8.96821777 -88.90234375 8.88745117 C-94.52647917 8.44732713 -99.65436619 7.82796099 -105 6 C-105 5.67 -105 5.34 -105 5 C-102.31243433 5.14469139 -99.62494945 5.29067587 -96.9375 5.4375 C-96.11548096 5.48189209 -95.29346191 5.52628418 -94.4465332 5.57202148 C-89.52084431 5.84305107 -84.60600767 6.1799494 -79.6875 6.5625 C-54.69564443 8.17743982 -30.43015187 5.55795607 -5.96923828 0.31958008 C-4 0 -4 0 0 0 Z " fill="#0E3FA4" transform="translate(584,727)"/>
<path d="M0 0 C0 0.33 0 0.66 0 1 C-0.59167969 1.09796875 -1.18335938 1.1959375 -1.79296875 1.296875 C-6.82440698 2.24899055 -10.31578146 3.20064963 -14 7 C-16.48704771 14.46114313 -14.41768975 22.20698642 -12.875 29.6875 C-12.54375122 31.32114502 -12.54375122 31.32114502 -12.20581055 32.98779297 C-10.16499096 42.75675269 -7.54678778 52.31165113 -4.64697266 61.85644531 C-3.72995305 64.8947216 -2.86374323 67.94619693 -2 71 C-2.99 70.67 -3.98 70.34 -5 70 C-6.29030227 67.11947047 -7.33571469 64.36500696 -8.3125 61.375 C-8.6122876 60.4672583 -8.9120752 59.5595166 -9.22094727 58.62426758 C-11.89603727 50.09763824 -13.74065252 41.44989848 -15.4375 32.6875 C-15.5688736 32.01732849 -15.70024719 31.34715698 -15.83560181 30.65667725 C-19.55687059 11.45799927 -19.55687059 11.45799927 -16.3125 6.1875 C-11.65551543 -0.23158685 -7.46608513 -0.43918148 0 0 Z " fill="#1146A5" transform="translate(286,502)"/>
<path d="M0 0 C-5.00300389 1.8733715 -10.0142632 3.69990101 -15.10546875 5.3203125 C-35.94765912 11.97365596 -56.77929787 20.87376902 -73.93359375 34.69921875 C-74.61550781 35.12847656 -75.29742187 35.55773437 -76 36 C-76.99 35.67 -77.98 35.34 -79 35 C-70.63685237 28.6570999 -62.45715014 22.63160791 -53 18 C-52.27603027 17.63551758 -51.55206055 17.27103516 -50.80615234 16.89550781 C-10.64081817 -3.28719248 -10.64081817 -3.28719248 0 0 Z " fill="#104EB5" transform="translate(465,269)"/>
<path d="M0 0 C0.99 0.33 1.98 0.66 3 1 C-11.7040102 13.99780824 -40.58443276 37 -61 37 C-61 36.34 -61 35.68 -61 35 C-59.83726562 34.53851562 -58.67453125 34.07703125 -57.4765625 33.6015625 C-39.53087255 26.34503167 -23.29836387 17.31183715 -7.86328125 5.625 C-6.87714844 4.8825 -5.89101563 4.14 -4.875 3.375 C-3.57175781 2.36566406 -3.57175781 2.36566406 -2.2421875 1.3359375 C-1.50226562 0.89507813 -0.76234375 0.45421875 0 0 Z " fill="#1250B4" transform="translate(658,657)"/>
<path d="M0 0 C0.33 0 0.66 0 1 0 C0.75393047 8.19206481 -2.92122527 14.87011312 -6.5 22.0625 C-7.14362104 23.37309567 -7.7871754 24.68372409 -8.43066406 25.99438477 C-15.44762766 40.19552499 -23.51110408 53.31536193 -33 66 C-33.71542969 66.95648437 -34.43085937 67.91296875 -35.16796875 68.8984375 C-35.77253906 69.59195313 -36.37710938 70.28546875 -37 71 C-37.66 71 -38.32 71 -39 71 C-37.29398381 67.16615044 -34.84501533 63.92552087 -32.375 60.5625 C-18.9360911 41.91450594 -8.18507556 21.47141301 0 0 Z " fill="#0F47AA" transform="translate(749,575)"/>
<path d="M0 0 C4.49698674 2.9654043 8.9521322 5.96159591 13.3125 9.125 C27.45667156 19.06354934 42.79143965 28.14635637 59.0390625 34.140625 C61 35 61 35 63 37 C57.20328184 36.53293551 52.78037329 35.31724925 47.625 32.5625 C46.9458252 32.20978027 46.26665039 31.85706055 45.56689453 31.49365234 C43.36979109 30.34383654 41.18473462 29.17312413 39 28 C38.25298828 27.60570801 37.50597656 27.21141602 36.73632812 26.80517578 C26.21629855 21.24143901 16.53596546 15.11907083 7 8 C6.35724121 7.57154785 5.71448242 7.1430957 5.05224609 6.70166016 C3.31897296 5.53788484 1.6533134 4.27481901 0 3 C0 2.01 0 1.02 0 0 Z " fill="#104BAE" transform="translate(361,680)"/>
<path d="M0 0 C0 0.99 0 1.98 0 3 C-9.62625242 7.56314588 -19.2571661 12.11621459 -28.89624023 16.65222168 C-32.59929256 18.39532265 -36.30107768 20.14079718 -39.99609375 21.90087891 C-43.32601054 23.48584337 -46.66192922 25.05730268 -50 26.625 C-50.97001953 27.09139893 -51.94003906 27.55779785 -52.93945312 28.03833008 C-54.26879883 28.65744263 -54.26879883 28.65744263 -55.625 29.2890625 C-56.75808594 29.82587646 -56.75808594 29.82587646 -57.9140625 30.37353516 C-60.34439552 31.10343152 -61.63591828 30.83103891 -64 30 C-60.00204924 28.05825785 -56.00182283 26.12124749 -52 24.1875 C-51.39575195 23.89543671 -50.79150391 23.60337341 -50.16894531 23.30245972 C-40.55102591 18.65878419 -30.88292045 14.14117687 -21.1328125 9.7800293 C-15.32755281 7.15954247 -9.75191555 4.28487304 -4.21484375 1.13452148 C-2 0 -2 0 0 0 Z " fill="#1050B9" transform="translate(610,447)"/>
<path d="M0 0 C0.495 0.99 0.495 0.99 1 2 C-0.18778109 4.5038059 -1.43127303 6.85468295 -2.8125 9.25 C-3.21976318 9.96365723 -3.62702637 10.67731445 -4.04663086 11.41259766 C-12.39736736 25.77860081 -22.84963287 38.72273407 -34 51 C-34.495 49.515 -34.495 49.515 -35 48 C-34.43410156 47.37351562 -33.86820313 46.74703125 -33.28515625 46.1015625 C-32.55167969 45.28429687 -31.81820312 44.46703125 -31.0625 43.625 C-30.33160156 42.81289063 -29.60070312 42.00078125 -28.84765625 41.1640625 C-26.97010529 39.14075833 -26.97010529 39.14075833 -26 37 C-25.34 37 -24.68 37 -24 37 C-23.59140747 36.13652954 -23.59140747 36.13652954 -23.17456055 35.25561523 C-21.99659566 32.99346233 -20.67896305 30.99149736 -19.20703125 28.91015625 C-18.66216064 28.13140137 -18.11729004 27.35264648 -17.5559082 26.55029297 C-16.9805835 25.72932129 -16.40525879 24.90834961 -15.8125 24.0625 C-11.12854146 17.32394734 -6.92825371 10.62793277 -3.26953125 3.2734375 C-2 1 -2 1 0 0 Z " fill="#114CB0" transform="translate(713,590)"/>
<path d="M0 0 C0.66 0.33 1.32 0.66 2 1 C0.54497549 3.91004903 -1.4382479 4.30770269 -4.37890625 5.65234375 C-6.08639038 6.43907471 -6.08639038 6.43907471 -7.82836914 7.24169922 C-9.07292877 7.80729777 -10.31764251 8.37255732 -11.5625 8.9375 C-12.82629837 9.51533333 -14.08988717 10.09362523 -15.35327148 10.67236328 C-17.29562431 11.56173234 -19.23831087 12.45032015 -21.18226624 13.33618164 C-25.5015619 15.30574204 -29.80162264 17.31172889 -34.09375 19.33984375 C-35.1861499 19.85232666 -36.2785498 20.36480957 -37.40405273 20.89282227 C-39.47973074 21.86688435 -41.55227816 22.84765087 -43.62133789 23.83569336 C-44.55196045 24.26889893 -45.48258301 24.70210449 -46.44140625 25.1484375 C-47.65872437 25.72343994 -47.65872437 25.72343994 -48.90063477 26.31005859 C-51 27 -51 27 -54 26 C-44.11723437 20.99051237 -34.16858327 16.12306385 -24.1875 11.3125 C-22.49016724 10.4932605 -22.49016724 10.4932605 -20.75854492 9.6574707 C-17.51027069 8.09517495 -14.25620662 6.54568355 -11 5 C-9.94377441 4.49130371 -8.88754883 3.98260742 -7.79931641 3.45849609 C-6.8097998 2.99137207 -5.8202832 2.52424805 -4.80078125 2.04296875 C-3.92204346 1.62426514 -3.04330566 1.20556152 -2.13793945 0.77416992 C-1.43241943 0.51869385 -0.72689941 0.26321777 0 0 Z " fill="#104DB6" transform="translate(626,573)"/>
<path d="M0 0 C0 0.33 0 0.66 0 1 C-20.79 1 -41.58 1 -63 1 C-63 0.67 -63 0.34 -63 0 C-42.92789453 -4.50675576 -20.19975205 -2.63987425 0 0 Z " fill="#1042A6" transform="translate(546,264)"/>
<path d="M0 0 C0.33 0 0.66 0 1 0 C1.52399044 15.50623564 -0.73685016 29.42748626 -4.5 44.4375 C-4.70133545 45.2610498 -4.9026709 46.08459961 -5.11010742 46.93310547 C-6.64412772 52.76275182 -6.64412772 52.76275182 -10 55 C-9.75765625 53.93265625 -9.5153125 52.8653125 -9.265625 51.765625 C-5.38875878 34.58521233 -1.72742401 17.54699123 0 0 Z " fill="#104AAC" transform="translate(762,513)"/>
<path d="M0 0 C5.2519791 0.62325701 9.67384217 2.26580479 14.5 4.3125 C15.71405518 4.82514404 15.71405518 4.82514404 16.95263672 5.34814453 C23.86159168 8.34924235 30.50830971 11.7801266 37.125 15.375 C38.09115234 15.89876221 39.05730469 16.42252441 40.05273438 16.9621582 C46.86954476 20.73908952 46.86954476 20.73908952 48 23 C44.055937 22.39941969 41.10006082 21.17469796 37.60546875 19.26953125 C36.57413818 18.71612061 35.54280762 18.16270996 34.48022461 17.5925293 C33.39362549 17.00511963 32.30702637 16.41770996 31.1875 15.8125 C21.66687818 10.748604 12.24957921 6.34524269 2 3 C2 2.34 2 1.68 2 1 C1.34 0.67 0.68 0.34 0 0 Z " fill="#114EB5" transform="translate(585,274)"/>
<path d="M0 0 C4.88081303 0.57060622 8.888888 2.11620762 13.26953125 4.23828125 C13.94996994 4.56032028 14.63040863 4.88235931 15.33146667 5.2141571 C17.49522301 6.23993731 19.65393838 7.27583986 21.8125 8.3125 C23.9568927 9.33406519 26.10228222 10.35351397 28.24777222 11.37277222 C29.62493128 12.02724389 31.00166899 12.68260299 32.37796021 13.33889771 C37.21681909 15.64290627 42.08620466 17.85950013 47 20 C46.01 20.66 45.02 21.32 44 22 C41.55638269 21.16530191 39.42944154 20.26171949 37.12890625 19.125 C36.11255348 18.64268921 36.11255348 18.64268921 35.07566833 18.15063477 C32.89816116 17.11332665 30.73053808 16.05693361 28.5625 15 C27.13666444 14.31776189 25.71023743 13.6367584 24.28320312 12.95703125 C16.14160264 9.06623657 8.05518936 5.06658538 0 1 C0 0.67 0 0.34 0 0 Z " fill="#1054BE" transform="translate(433,432)"/>
<path d="M0 0 C0 0.66 0 1.32 0 2 C-32.79310345 9.54310345 -32.79310345 9.54310345 -48 9 C-48 8.67 -48 8.34 -48 8 C-46.865625 7.855625 -45.73125 7.71125 -44.5625 7.5625 C-41.19222799 7.38828522 -41.19222799 7.38828522 -40 6 C-38.19684434 5.65425886 -36.38298605 5.36401146 -34.56640625 5.09765625 C-33.44169922 4.92943359 -32.31699219 4.76121094 -31.15820312 4.58789062 C-29.97162109 4.41451172 -28.78503906 4.24113281 -27.5625 4.0625 C-20.36483374 3.00319042 -13.2093023 1.92836962 -6.10131836 0.36499023 C-4 0 -4 0 0 0 Z " fill="#1657BA" transform="translate(584,727)"/>
<path d="M0 0 C3.07333164 2.23515028 5.61336298 4.61866233 8.0625 7.5 C15.32677504 15.98556145 23.43050774 23.84195353 32 31 C31.01 31.33 30.02 31.66 29 32 C22.16598867 25.7923465 15.4153364 19.51789636 8.875 13 C8.33141846 12.46093018 7.78783691 11.92186035 7.2277832 11.36645508 C0 4.1113155 0 4.1113155 0 0 Z " fill="#114AAE" transform="translate(326,646)"/>
<path d="M0 0 C-1.5632255 4.59197491 -5.24511403 6.8102299 -9 9.5625 C-10.04957886 10.33944214 -10.04957886 10.33944214 -11.12036133 11.13208008 C-16.49964615 15.04822793 -22.02872259 18.68918792 -27.6875 22.1875 C-28.44095703 22.65679932 -29.19441406 23.12609863 -29.97070312 23.60961914 C-33.61348961 25.80999029 -36.67641635 27.5650833 -41 28 C-38.26604178 24.82860847 -34.76803015 22.99512464 -31.1875 20.9375 C-21.89223649 15.47630575 -12.86555659 9.50126353 -4.75 2.375 C-2 0 -2 0 0 0 Z " fill="#0F48AB" transform="translate(679,678)"/>
<path d="M0 0 C8.37951401 0.37969673 16.37925419 1.27182974 24.58007812 2.98364258 C27.36505407 3.55583497 29.92713908 4.00092229 32.77734375 3.96484375 C35 4 35 4 38 6 C38 6.66 38 7.32 38 8 C38.99 8.33 39.98 8.66 41 9 C33.59448736 8.1946505 26.31745452 6.81676677 19 5.4375 C17.12248047 5.08655273 17.12248047 5.08655273 15.20703125 4.72851562 C12.13761679 4.15446483 9.06862845 3.57823512 6 3 C6 2.34 6 1.68 6 1 C4.02 1 2.04 1 0 1 C0 0.67 0 0.34 0 0 Z " fill="#104BB1" transform="translate(540,236)"/>
<path d="M0 0 C5.33875252 -0.29253438 8.83813071 0.44600147 13.66796875 2.703125 C14.27006668 2.98218689 14.87216461 3.26124878 15.49250793 3.54876709 C16.75509509 4.13759128 18.01466221 4.73293138 19.27124023 5.33447266 C21.18569017 6.24913532 23.11008386 7.13953294 25.03710938 8.02734375 C35.26878424 12.82865146 35.26878424 12.82865146 39 17 C34.76196599 15.65755908 30.75988981 14.06457919 26.71875 12.21484375 C25.54699219 11.68439453 24.37523437 11.15394531 23.16796875 10.60742188 C21.3301832 9.77204248 19.49346643 8.93450176 17.65869141 8.0925293 C15.86908456 7.272831 14.07520369 6.46248455 12.28125 5.65234375 C11.21970703 5.16757568 10.15816406 4.68280762 9.06445312 4.18334961 C6.01930852 3.00745606 3.22962259 2.41398439 0 2 C0 1.34 0 0.68 0 0 Z " fill="#0E4CB4" transform="translate(509,366)"/>
<path d="M0 0 C0 0.66 0 1.32 0 2 C-0.81339844 2.25652344 -1.62679687 2.51304687 -2.46484375 2.77734375 C-11.25316107 5.71337327 -19.17491201 9.54488716 -27.28515625 14.01171875 C-30.12228639 15.56673252 -32.95402939 16.88967543 -36 18 C-34.72795953 14.1838786 -33.62740098 13.9850066 -30.1171875 12.1875 C-29.11429687 11.66929687 -28.11140625 11.15109375 -27.078125 10.6171875 C-26.02109375 10.08351563 -24.9640625 9.54984375 -23.875 9 C-22.84117187 8.46632813 -21.80734375 7.93265625 -20.7421875 7.3828125 C-5.38850905 -0.48986446 -5.38850905 -0.48986446 0 0 Z " fill="#104EB4" transform="translate(428,251)"/>
<path d="M0 0 C0.33 0 0.66 0 1 0 C3.74361733 12.21548798 3.01049846 24.38971678 2.625 36.8125 C2.56664043 38.96937241 2.50934015 41.12627376 2.453125 43.28320312 C2.31429502 48.5225316 2.16239015 53.76135156 2 59 C1.34 58.67 0.68 58.34 0 58 C0 38.86 0 19.72 0 0 Z " fill="#2262C1" transform="translate(734,454)"/>
<path d="M0 0 C7.00147424 0.90605008 12.77853575 3.85570395 19.125 6.8125 C20.89423828 7.61397461 20.89423828 7.61397461 22.69921875 8.43164062 C23.83230469 8.95564453 24.96539063 9.47964844 26.1328125 10.01953125 C27.16293457 10.49495361 28.19305664 10.97037598 29.25439453 11.46020508 C32.01972935 13.01106464 33.88791181 14.65460342 36 17 C23.42048766 13.3405055 11.62957121 6.94336809 0 1 C0 0.67 0 0.34 0 0 Z " fill="#104FB8" transform="translate(577,396)"/>
<path d="M0 0 C4.67100548 0.56925956 8.27600007 1.8734667 12.4921875 3.94140625 C13.08299103 4.22853989 13.67379456 4.51567352 14.28250122 4.81150818 C16.15029044 5.72130328 18.01262735 6.64167626 19.875 7.5625 C21.14809098 8.18495402 22.42152548 8.80670596 23.6953125 9.42773438 C26.80088819 10.94372618 29.90167023 12.46924355 33 14 C33 14.99 33 15.98 33 17 C29.18467386 15.2770224 25.37328937 13.54548594 21.5625 11.8125 C20.49322266 11.32974609 19.42394531 10.84699219 18.32226562 10.34960938 C12.04991908 7.49156768 5.95736914 4.4696556 0 1 C0 0.67 0 0.34 0 0 Z " fill="#0E4FB9" transform="translate(430,564)"/>
<path d="M0 0 C-0.61520508 0.26627197 -1.23041016 0.53254395 -1.86425781 0.80688477 C-4.66991819 2.03641172 -7.45952002 3.29892093 -10.25 4.5625 C-11.21808594 4.98080078 -12.18617188 5.39910156 -13.18359375 5.83007812 C-19.3146453 8.64190522 -22.35945856 10.71706462 -25 17 C-25.99 16.34 -26.98 15.68 -28 15 C-27.1646568 11.3453735 -25.79607721 9.56718329 -22.75 7.5625 C-6.2178011 -1.94959238 -6.2178011 -1.94959238 0 0 Z " fill="#125BC4" transform="translate(419,410)"/>
<path d="M0 0 C4.28252302 0.5056473 6.949875 3.20454228 10.0625 5.9375 C10.90880981 6.66706909 10.90880981 6.66706909 11.7722168 7.41137695 C17.27054546 12.17515786 22.65662211 17.06353265 28 22 C27.67 22.99 27.34 23.98 27 25 C26.5875 24.57589844 26.175 24.15179688 25.75 23.71484375 C20.52706563 18.41030103 15.21016741 13.14011161 9 9 C9 8.34 9 7.68 9 7 C8.443125 6.773125 7.88625 6.54625 7.3125 6.3125 C4.36753316 4.64103234 2.31843456 2.44723648 0 0 Z " fill="#104CB1" transform="translate(664,286)"/>
<path d="M0 0 C2.55463636 3.03098491 3.65093745 5.59655088 4.60546875 9.4296875 C4.99702148 10.99396484 4.99702148 10.99396484 5.39648438 12.58984375 C5.65751953 13.67394531 5.91855469 14.75804687 6.1875 15.875 C6.46013672 16.95136719 6.73277344 18.02773438 7.01367188 19.13671875 C8.26800168 24.23577376 9.15059836 28.72174685 9 34 C6.36022946 30.89793579 5.32968638 28.26324045 4.39453125 24.31640625 C4.13349609 23.22392578 3.87246094 22.13144531 3.60351562 21.00585938 C3.34248047 19.86955078 3.08144531 18.73324219 2.8125 17.5625 C2.53986328 16.43005859 2.26722656 15.29761719 1.98632812 14.13085938 C-0.17445894 4.94074496 -0.17445894 4.94074496 0 0 Z " fill="#104AAC" transform="translate(725,418)"/>
<path d="M0 0 C2.43501014 2.94076937 3.68808587 5.52973654 4.7890625 9.17578125 C5.09070313 10.16900391 5.39234375 11.16222656 5.703125 12.18554688 C6.00734375 13.21744141 6.3115625 14.24933594 6.625 15.3125 C6.93695313 16.33279297 7.24890625 17.35308594 7.5703125 18.40429688 C9.12915283 23.60155116 10.43638211 28.59993129 11 34 C7.79787922 30.35818502 6.4762464 26.32527346 4.9375 21.8125 C4.67437012 21.05235596 4.41124023 20.29221191 4.14013672 19.5090332 C1.94155869 13.04941473 0 6.89097853 0 0 Z " fill="#0D46A9" transform="translate(300,537)"/>
<path d="M0 0 C-21.37574553 11.46719682 -21.37574553 11.46719682 -28 14 C-28.99 14.495 -28.99 14.495 -30 15 C-29.96484375 13.21484375 -29.96484375 13.21484375 -29 11 C-26.50796791 9.65952064 -24.17998193 8.58884785 -21.5625 7.5625 C-20.10057482 6.96203446 -18.63963407 6.35916661 -17.1796875 5.75390625 C-16.46522461 5.46016113 -15.75076172 5.16641602 -15.01464844 4.86376953 C-11.53761612 3.37301089 -8.2291619 1.57372084 -4.91796875 -0.25 C-3 -1 -3 -1 0 0 Z " fill="#0E51BB" transform="translate(459,417)"/>
<path d="M0 0 C3.00365886 2.80776807 5.13660656 5.60609733 7.25 9.125 C10.75761317 14.77826808 14.73960451 19.89859137 19 25 C18.67 25.66 18.34 26.32 18 27 C13.91342576 23.13673583 10.60256618 18.98987728 7.3125 14.4375 C6.82716797 13.77814453 6.34183594 13.11878906 5.84179688 12.43945312 C0 4.42209052 0 4.42209052 0 0 Z " fill="#0F46A7" transform="translate(305,617)"/>
<path d="M0 0 C-7.0481936 3.57164833 -14.11525139 7.1040191 -21.25 10.5 C-22.30703125 11.0053125 -23.3640625 11.510625 -24.453125 12.03125 C-25.29359375 12.3509375 -26.1340625 12.670625 -27 13 C-27.66 12.67 -28.32 12.34 -29 12 C-23.65428166 8.36036198 -18.06241489 5.43537132 -12.25 2.625 C-11.50500244 2.25503906 -10.76000488 1.88507812 -9.99243164 1.50390625 C-9.27821045 1.16488281 -8.56398926 0.82585938 -7.828125 0.4765625 C-6.8676123 0.0137085 -6.8676123 0.0137085 -5.88769531 -0.45849609 C-3.58496498 -1.11905687 -2.24133135 -0.75394757 0 0 Z " fill="#0E4EB7" transform="translate(601,562)"/>
<path d="M0 0 C0.59296875 0.21527344 1.1859375 0.43054688 1.796875 0.65234375 C0.22583914 3.05024059 -0.99359201 4.52892021 -3.484375 5.99609375 C-6.50260219 7.83478388 -8.91675125 9.9488799 -11.515625 12.33984375 C-12.39863281 13.14808594 -13.28164063 13.95632813 -14.19140625 14.7890625 C-15.18720703 15.71138672 -15.18720703 15.71138672 -16.203125 16.65234375 C-16.533125 15.66234375 -16.863125 14.67234375 -17.203125 13.65234375 C-13.36323361 9.72268866 -9.49324429 5.81446566 -5.453125 2.08984375 C-4.92203125 1.59355469 -4.3909375 1.09726562 -3.84375 0.5859375 C-2.203125 -0.34765625 -2.203125 -0.34765625 0 0 Z " fill="#0C4FB8" transform="translate(367.203125,285.34765625)"/>
<path d="M0 0 C5.74942957 0.9515987 10.53575507 3.42889228 15.75 5.9375 C17.20599609 6.62102539 17.20599609 6.62102539 18.69140625 7.31835938 C19.61308594 7.75857422 20.53476562 8.19878906 21.484375 8.65234375 C22.32709961 9.05445068 23.16982422 9.45655762 24.03808594 9.87084961 C26 11 26 11 27 13 C21.16526488 12.44703491 16.45806513 10.12994457 11.25 7.625 C10.38761719 7.22539062 9.52523438 6.82578125 8.63671875 6.4140625 C7.81300781 6.0221875 6.98929687 5.6303125 6.140625 5.2265625 C5.39329102 4.87158691 4.64595703 4.51661133 3.87597656 4.15087891 C2 3 2 3 0 0 Z " fill="#0F4FB8" transform="translate(413,447)"/>
<path d="M0 0 C2.40918778 2.14367356 3.49878552 3.78683108 4.38671875 6.87890625 C4.71119995 8.0073999 4.71119995 8.0073999 5.04223633 9.15869141 C5.25517334 9.95194824 5.46811035 10.74520508 5.6875 11.5625 C5.90881592 12.36864746 6.13013184 13.17479492 6.3581543 14.00537109 C7.87631638 19.81963373 8.48582737 24.97574066 8 31 C7.67 31 7.34 31 7 31 C6.01737335 26.95916652 5.03951265 22.9171942 4.0625 18.875 C3.78470703 17.73289062 3.50691406 16.59078125 3.22070312 15.4140625 C2.81948242 13.75117188 2.81948242 13.75117188 2.41015625 12.0546875 C2.16402588 11.03874512 1.91789551 10.02280273 1.66430664 8.97607422 C0.99904673 5.99572937 0.47385636 3.01616457 0 0 Z " fill="#0E47AA" transform="translate(751,412)"/>
<path d="M0 0 C1.87922366 2.81883549 2.7292963 4.91052334 3.7265625 8.10546875 C4.0359375 9.08837891 4.3453125 10.07128906 4.6640625 11.08398438 C4.98117187 12.10814453 5.29828125 13.13230469 5.625 14.1875 C5.94984375 15.22326172 6.2746875 16.25902344 6.609375 17.32617188 C7.41053337 19.88280963 8.20722579 22.44075248 9 25 C8.01 25 7.02 25 6 25 C4.98665453 22.14996588 3.98919371 19.29591336 3 16.4375 C2.71382813 15.63763672 2.42765625 14.83777344 2.1328125 14.01367188 C0.45558109 9.12174693 -0.33313039 5.17046121 0 0 Z " fill="#1047A5" transform="translate(275,547)"/>
<path d="M0 0 C6.18483028 0.51949766 11.23442329 1.96847068 16.9375 4.375 C17.70384766 4.67921875 18.47019531 4.9834375 19.25976562 5.296875 C21.21350997 6.10675308 23.11293952 7.04500144 25 8 C25.33 8.99 25.66 9.98 26 11 C23.03 10.34 20.06 9.68 17 9 C17 8.34 17 7.68 17 7 C16.443125 6.81824219 15.88625 6.63648438 15.3125 6.44921875 C10.15803009 4.75137815 5.06989385 2.93577765 0 1 C0 0.67 0 0.34 0 0 Z " fill="#104EB6" transform="translate(595,249)"/>
<path d="M0 0 C0.99 0 1.98 0 3 0 C3 0.66 3 1.32 3 2 C-0.05483301 3.5159928 -3.11997906 5.00986948 -6.1875 6.5 C-7.05181641 6.92925781 -7.91613281 7.35851562 -8.80664062 7.80078125 C-9.64775391 8.20683594 -10.48886719 8.61289062 -11.35546875 9.03125 C-12.12528076 9.40830078 -12.89509277 9.78535156 -13.68823242 10.17382812 C-16.2618097 11.09356469 -18.28738106 11.15105071 -21 11 C-17.33521862 7.8642553 -13.21035072 6.2201427 -8.8125 4.375 C-4.07015044 2.6895602 -4.07015044 2.6895602 0 0 Z " fill="#0F4AAF" transform="translate(631,708)"/>
<path d="M0 0 C4.94165453 0.55331267 8.48318757 2.81872514 12.625 5.375 C13.29273438 5.77460937 13.96046875 6.17421875 14.6484375 6.5859375 C17.79754873 8.50059713 20.45338299 10.30852423 23 13 C15.20978351 13 6.08922867 5.61578568 0 1 C0 0.67 0 0.34 0 0 Z " fill="#104AB2" transform="translate(391,669)"/>
<path d="M0 0 C3.47598164 0.57977557 6.29104698 1.46521105 9.42578125 3.06640625 C10.22177734 3.46923828 11.01777344 3.87207031 11.83789062 4.28710938 C12.65451172 4.70798828 13.47113281 5.12886719 14.3125 5.5625 C15.14845703 5.98724609 15.98441406 6.41199219 16.84570312 6.84960938 C18.89996426 7.8943479 20.95120292 8.94459762 23 10 C20.54679315 10.88207936 19.31599145 11.10244103 16.80175781 10.28735352 C16.02670898 9.90506592 15.25166016 9.52277832 14.453125 9.12890625 C13.60878906 8.71962891 12.76445312 8.31035156 11.89453125 7.88867188 C11.02183594 7.45103516 10.14914062 7.01339844 9.25 6.5625 C8.36183594 6.12873047 7.47367187 5.69496094 6.55859375 5.24804688 C4.36698601 4.17580868 2.1813591 3.09289767 0 2 C0 1.34 0 0.68 0 0 Z " fill="#0D4BB4" transform="translate(451,465)"/>
<path d="M0 0 C3.32560215 3.32560215 4.77671459 7.74724731 6.6875 12 C7.33041992 13.3921875 7.33041992 13.3921875 7.98632812 14.8125 C8.38658203 15.699375 8.78683594 16.58625 9.19921875 17.5 C9.56877686 18.3146875 9.93833496 19.129375 10.3190918 19.96875 C10.5437915 20.6390625 10.76849121 21.309375 11 22 C10.67 22.66 10.34 23.32 10 24 C9.34 23.67 8.68 23.34 8 23 C8 22.34 8 21.68 8 21 C7.34 20.67 6.68 20.34 6 20 C3.02478696 13.60468225 0.4932351 7.06970306 0 0 Z " fill="#0F46A7" transform="translate(284,575)"/>
<path d="M0 0 C-0.33 0.99 -0.66 1.98 -1 3 C-3.39234721 4.05895668 -5.64400074 4.90390195 -8.125 5.6875 C-8.77726563 5.91244141 -9.42953125 6.13738281 -10.1015625 6.36914062 C-14.50890987 7.80764984 -18.31699635 8.22502745 -23 8 C-20.45079818 6.30053212 -18.67900436 5.43468669 -15.83984375 4.4921875 C-15.04642578 4.22792969 -14.25300781 3.96367188 -13.43554688 3.69140625 C-12.61119141 3.42199219 -11.78683594 3.15257812 -10.9375 2.875 C-10.10927734 2.59785156 -9.28105469 2.32070313 -8.42773438 2.03515625 C-2.26712592 0 -2.26712592 0 0 0 Z " fill="#1049AB" transform="translate(608,719)"/>
<path d="M0 0 C4.11807165 6.17710747 4.2869699 12.81102826 4.125 20 C4.11597656 20.77472656 4.10695313 21.54945313 4.09765625 22.34765625 C4.07439388 24.23190843 4.0385364 26.11599832 4 28 C3.67 28 3.34 28 3 28 C2.4932817 24.45926096 1.99582971 20.91727889 1.5 17.375 C1.35691406 16.37597656 1.21382812 15.37695312 1.06640625 14.34765625 C0.39647818 9.53055443 -0.19978289 4.87803213 0 0 Z " fill="#0C3D9D" transform="translate(759,444)"/>
<path d="M0 0 C3.06692585 2.72615631 4.77796051 4.29584694 5.3125 8.3984375 C5.3125 10.62139667 5.22111833 12.78881668 5 15 C4.67 15 4.34 15 4 15 C3.80664062 14.30132812 3.61328125 13.60265625 3.4140625 12.8828125 C3.15367187 11.97273438 2.89328125 11.06265625 2.625 10.125 C2.36976563 9.22007812 2.11453125 8.31515625 1.8515625 7.3828125 C1.1395685 4.85430274 1.1395685 4.85430274 -1 3 C-3.43252661 2.53837573 -3.43252661 2.53837573 -6.125 2.375 C-7.03507812 2.30023438 -7.94515625 2.22546875 -8.8828125 2.1484375 C-9.58148438 2.09945313 -10.28015625 2.05046875 -11 2 C-11 1.34 -11 0.68 -11 0 C-7.02817148 -0.83131295 -3.84159109 -1.47753503 0 0 Z " fill="#1148AD" transform="translate(437,326)"/>
<path d="M0 0 C2.83163108 0.9219264 5.61644399 1.83123536 8.34375 3.03125 C11.23871942 4.08706238 13.74523855 4.40327026 16.8125 4.625 C17.78832031 4.69976563 18.76414062 4.77453125 19.76953125 4.8515625 C20.50558594 4.90054688 21.24164062 4.94953125 22 5 C22 5.66 22 6.32 22 7 C15.63837071 8.84152427 9.72852694 6.99689882 4.0234375 3.94140625 C2.375 2.875 2.375 2.875 0 1 C0 0.67 0 0.34 0 0 Z " fill="#1049AE" transform="translate(496,620)"/>
<path d="M0 0 C3.29256681 0.56768393 5.04456918 1.24462022 7 4 C8.89242949 9.77689001 9.25200764 14.95181673 9 21 C6.30919467 16.96379201 5.87754807 12.94859529 4.9765625 8.2265625 C3.9114638 4.7074764 2.45603266 2.69860378 0 0 Z " fill="#0F47AB" transform="translate(289,504)"/>
<path d="M0 0 C0.66 0.33 1.32 0.66 2 1 C0.18243265 4.6351347 -4.34358619 5.60948267 -7.9375 7.1875 C-8.77474609 7.56841797 -9.61199219 7.94933594 -10.47460938 8.34179688 C-11.67633789 8.87450195 -11.67633789 8.87450195 -12.90234375 9.41796875 C-13.63960693 9.74563232 -14.37687012 10.0732959 -15.13647461 10.41088867 C-17 11 -17 11 -19 10 C-12.99994659 6.03770058 -6.80679683 2.40644332 0 0 Z " fill="#0D4DB5" transform="translate(484,377)"/>
<path d="M0 0 C0.66 0.33 1.32 0.66 2 1 C-0.78363165 4.42926485 -4.64536896 5.94893502 -8.5625 7.75 C-9.24763672 8.07871094 -9.93277344 8.40742188 -10.63867188 8.74609375 C-12.39642121 9.56373181 -14.19632114 10.28939651 -16 11 C-16.66 10.67 -17.32 10.34 -18 10 C-12.29064717 6.25224046 -6.38041287 2.49049573 0 0 Z " fill="#1254BB" transform="translate(569,440)"/>
<path d="M0 0 C0 0.66 0 1.32 0 2 C-7.47321608 4.15721701 -14.21038876 5.46530864 -22 5 C-18.47773428 2.97469721 -14.95941784 2.20547112 -11 1.375 C-9.783125 1.11460937 -8.56625 0.85421875 -7.3125 0.5859375 C-4 0 -4 0 0 0 Z " fill="#0F45A8" transform="translate(584,727)"/>
<path d="M0 0 C3.66172475 0.62678171 6.8818995 1.64451846 10.3125 3.0625 C11.19550781 3.42472656 12.07851563 3.78695313 12.98828125 4.16015625 C13.65214844 4.43730469 14.31601562 4.71445312 15 5 C15 5.66 15 6.32 15 7 C15.99 7 16.98 7 18 7 C18 7.66 18 8.32 18 9 C13.66695924 8.35534798 10.13327935 6.81074878 6.1875 4.9375 C5.02605469 4.38964844 3.86460937 3.84179688 2.66796875 3.27734375 C1.78753906 2.85582031 0.90710938 2.43429687 0 2 C0 1.34 0 0.68 0 0 Z " fill="#0E51BA" transform="translate(482,480)"/>
<path d="M0 0 C5.31455478 0.515103 8.90623121 2.36164705 13.375 5.0625 C14.01566406 5.43955078 14.65632812 5.81660156 15.31640625 6.20507812 C16.88254066 7.12839617 18.44198034 8.06305393 20 9 C20 9.66 20 10.32 20 11 C15.50675151 9.34229667 11.38813854 7.15017838 7.1875 4.875 C6.49462891 4.50246094 5.80175781 4.12992187 5.08789062 3.74609375 C3.39065164 2.83309623 1.69514862 1.91687284 0 1 C0 0.67 0 0.34 0 0 Z " fill="#0F4BB1" transform="translate(622,260)"/>
<path d="M0 0 C4.90568208 -0.33096806 7.95446868 0.58192606 12.3125 2.8125 C13.36050781 3.33457031 14.40851562 3.85664063 15.48828125 4.39453125 C18 6 18 6 19 9 C14.53202662 7.60121198 10.36177921 5.86369228 6.125 3.875 C4.97257813 3.33617187 3.82015625 2.79734375 2.6328125 2.2421875 C1.76398437 1.83226562 0.89515625 1.42234375 0 1 C0 0.67 0 0.34 0 0 Z " fill="#1256BF" transform="translate(534,403)"/>
<path d="M0 0 C5.94 0.33 11.88 0.66 18 1 C18 1.66 18 2.32 18 3 C19.32 3.33 20.64 3.66 22 4 C19.64499052 3.88482579 17.29150927 3.75812022 14.9375 3.625 C13.62652344 3.55539062 12.31554687 3.48578125 10.96484375 3.4140625 C7.01863043 3.00194564 3.75882927 2.20243433 0 1 C0 0.67 0 0.34 0 0 Z " fill="#104EB4" transform="translate(479,732)"/>
<path d="M0 0 C6.22987798 0.50512524 11.45474233 3.32604123 17 6 C16.67 6.99 16.34 7.98 16 9 C10.72 6.36 5.44 3.72 0 1 C0 0.67 0 0.34 0 0 Z " fill="#104FB8" transform="translate(549,383)"/>
<path d="M0 0 C0.66 0.33 1.32 0.66 2 1 C-0.82179448 3.95273622 -3.742885 6.43419362 -7.0625 8.8125 C-7.91972656 9.43769531 -8.77695312 10.06289063 -9.66015625 10.70703125 C-10.43230469 11.13371094 -11.20445312 11.56039063 -12 12 C-12.99 11.67 -13.98 11.34 -15 11 C-10.05 7.37 -5.1 3.74 0 0 Z " fill="#0D4AB2" transform="translate(401,293)"/>
<path d="M0 0 C0.556875 0.19335938 1.11375 0.38671875 1.6875 0.5859375 C6.75117127 2.31374425 11.79322065 3.7693067 17 5 C16.67 5.66 16.34 6.32 16 7 C9.75276774 7.82200425 5.28682163 4.92551394 0 2 C0 1.34 0 0.68 0 0 Z " fill="#0E51BC" transform="translate(499,462)"/>
<path d="M0 0 C-2.74663704 0.86656998 -5.4964243 1.71851786 -8.25 2.5625 C-9.02730469 2.80935547 -9.80460937 3.05621094 -10.60546875 3.31054688 C-11.35957031 3.53935547 -12.11367188 3.76816406 -12.890625 4.00390625 C-13.58188477 4.21861572 -14.27314453 4.4333252 -14.98535156 4.65454102 C-17.28678704 5.0491764 -18.79616682 4.71084423 -21 4 C-20.34 4 -19.68 4 -19 4 C-19 3.34 -19 2.68 -19 2 C-12.77224366 0.05382614 -6.44933736 -1.90191102 0 0 Z " fill="#0E46AB" transform="translate(462,242)"/>
<path d="M0 0 C6.258654 -0.5326514 10.45108785 1.18150494 16 4 C15.01 4.66 14.02 5.32 13 6 C11.26554092 5.3127615 9.53292918 4.61317446 7.8515625 3.8046875 C5.29932363 2.69548664 2.7482857 2.33515679 0 2 C0 1.34 0 0.68 0 0 Z " fill="#1655B8" transform="translate(509,366)"/>
<path d="M0 0 C5.73783544 0.44137196 10.29517116 2.82052619 15 6 C15.33 6.66 15.66 7.32 16 8 C14 7.33333333 12 6.66666667 10 6 C8.906875 5.67 7.81375 5.34 6.6875 5 C4 4 4 4 3 2 C2.01 1.67 1.02 1.34 0 1 C0 0.67 0 0.34 0 0 Z " fill="#0D4DB8" transform="translate(413,556)"/>
<path d="M0 0 C-1.93370231 1.00732399 -3.87210306 2.00563288 -5.8125 3 C-7.43091797 3.8353125 -7.43091797 3.8353125 -9.08203125 4.6875 C-12 6 -12 6 -15 6 C-15 5.34 -15 4.68 -15 4 C-13.25705322 3.13153169 -11.50531337 2.28069373 -9.75 1.4375 C-8.77546875 0.96183594 -7.8009375 0.48617188 -6.796875 -0.00390625 C-3.90143703 -1.03510273 -2.80033839 -1.11346788 0 0 Z " fill="#1050B6" transform="translate(589,434)"/>
<path d="M0 0 C-2.45404224 1.19716659 -4.91251679 2.3829346 -7.375 3.5625 C-8.42300781 4.07586914 -8.42300781 4.07586914 -9.4921875 4.59960938 C-11.30052216 5.46030712 -13.14851956 6.23652436 -15 7 C-15.66 6.67 -16.32 6.34 -17 6 C-5.37435533 -1.55811142 -5.37435533 -1.55811142 0 0 Z " fill="#0E49AF" transform="translate(419,410)"/>
<path d="M0 0 C2.22942748 0.14179038 4.45853628 0.28859698 6.6875 0.4375 C7.92886719 0.51871094 9.17023437 0.59992188 10.44921875 0.68359375 C13.38180337 0.94491317 16.13441617 1.34798379 19 2 C15.8250906 3.9078584 13.89414789 4.1609041 10.25 3.625 C9.45078125 3.51414063 8.6515625 3.40328125 7.828125 3.2890625 C7.22484375 3.19367188 6.6215625 3.09828125 6 3 C6 2.34 6 1.68 6 1 C4.02 1 2.04 1 0 1 C0 0.67 0 0.34 0 0 Z " fill="#195CBF" transform="translate(540,236)"/>
<path d="M0 0 C0.66 0 1.32 0 2 0 C3.00732399 1.93370231 4.00563288 3.87210306 5 5.8125 C5.8353125 7.43091797 5.8353125 7.43091797 6.6875 9.08203125 C8 12 8 12 8 15 C5.52733876 12.73762373 3.936134 10.42546667 2.3125 7.5 C1.65701172 6.33984375 1.65701172 6.33984375 0.98828125 5.15625 C0 3 0 3 0 0 Z " fill="#0C43A4" transform="translate(295,600)"/>
<path d="M0 0 C7.93333333 -0.62222222 7.93333333 -0.62222222 12 1.75 C13.95829554 3.95308249 14.69025617 5.10905762 15 8 C14.34 8 13.68 8 13 8 C12.2265625 6.824375 12.2265625 6.824375 11.4375 5.625 C8.07671959 2.00569802 4.75734807 1.68107333 0 1 C0 0.67 0 0.34 0 0 Z " fill="#1249A9" transform="translate(332,222)"/>
<path d="M0 0 C0.33 0 0.66 0 1 0 C1.36196676 5.79146822 0.38210489 9.6860737 -2 15 C-2.99 15.495 -2.99 15.495 -4 16 C-2.68 10.72 -1.36 5.44 0 0 Z " fill="#0E47A9" transform="translate(756,552)"/>
<path d="M0 0 C4.85745385 0.59237242 8.66821752 1.79164031 13 4 C13.33 4.99 13.66 5.98 14 7 C9.0276578 5.50829734 4.58154261 3.39542583 0 1 C0 0.67 0 0.34 0 0 Z " fill="#1150B8" transform="translate(614,413)"/>
<path d="M0 0 C1.32 0.33 2.64 0.66 4 1 C0.7 3.31 -2.6 5.62 -6 8 C-6.66 7.67 -7.32 7.34 -8 7 C-5.42215154 4.35247996 -3.08351902 2.05567935 0 0 Z " fill="#0E4CB2" transform="translate(386,270)"/>
<path d="M0 0 C2.74332921 2.31445295 3.45890844 3.88360519 3.8125 7.4375 C3.90144531 8.19933594 3.99039062 8.96117187 4.08203125 9.74609375 C3.98860268 12.31315505 3.29378268 13.80706333 2 16 C0.80911014 10.61972975 -0.2919519 5.54708616 0 0 Z " fill="#1A56B4" transform="translate(269,521)"/>
<path d="M0 0 C4.69056641 0.5863208 9.08968731 2.35048907 13 5 C13.33 5.99 13.66 6.98 14 8 C9.02790438 6.23570801 4.56561939 3.6060834 0 1 C0 0.67 0 0.34 0 0 Z " fill="#1451B4" transform="translate(391,702)"/>
<path d="M0 0 C2.57075841 3.01447835 3.52207066 5.35979771 4.1875 9.25 C4.34605469 10.14203125 4.50460937 11.0340625 4.66796875 11.953125 C4.83232422 12.96632813 4.83232422 12.96632813 5 14 C4.01 13.67 3.02 13.34 2 13 C1.26953125 11.07421875 1.26953125 11.07421875 0.8125 8.6875 C0.65394531 7.90761719 0.49539063 7.12773438 0.33203125 6.32421875 C0 4 0 4 0 0 Z " fill="#114EB5" transform="translate(300,537)"/>
<path d="M0 0 C1.953125 0.7109375 1.953125 0.7109375 4 2 C4.609375 4.1640625 4.609375 4.1640625 4.75 6.625 C4.80671875 7.44226563 4.8634375 8.25953125 4.921875 9.1015625 C4.94765625 9.72804688 4.9734375 10.35453125 5 11 C4.67 10.01 4.34 9.02 4 8 C3.01 8.33 2.02 8.66 1 9 C-0.4783226 6.04335481 -0.06032783 3.25770263 0 0 Z " fill="#0F60CC" transform="translate(295,520)"/>
<path d="M0 0 C3.21852831 0.63065757 5.50801069 1.78020695 8.25 3.5625 C8.95640625 4.01753906 9.6628125 4.47257812 10.390625 4.94140625 C11.18726563 5.46541016 11.18726563 5.46541016 12 6 C11.67 6.99 11.34 7.98 11 9 C9.16384919 7.69144447 7.33114211 6.37805538 5.5 5.0625 C4.4790625 4.33160156 3.458125 3.60070312 2.40625 2.84765625 C1.6121875 2.23792969 0.818125 1.62820313 0 1 C0 0.67 0 0.34 0 0 Z " fill="#0D4AB1" transform="translate(650,276)"/>
<path d="M0 0 C0.721875 0.12375 1.44375 0.2475 2.1875 0.375 C1.445 0.91125 0.7025 1.4475 -0.0625 2 C-2.98924961 4.52764739 -4.79871339 7.09327368 -6.8125 10.375 C-7.625 8.75 -7.625 8.75 -7.8125 6.375 C-3.99227528 0.53230337 -3.99227528 0.53230337 0 0 Z " fill="#0E45A5" transform="translate(328.8125,222.625)"/>
<path d="M0 0 C-1.55500981 3.81684226 -4.03595495 6.19195732 -7 9 C-7.99 8.67 -8.98 8.34 -10 8 C-8.71451591 6.66070495 -7.42141845 5.32871357 -6.125 4 C-5.04605469 2.88625 -5.04605469 2.88625 -3.9453125 1.75 C-2 0 -2 0 0 0 Z " fill="#1049AA" transform="translate(690,668)"/>
<path d="M0 0 C0.99 0.66 1.98 1.32 3 2 C1.21046815 2.83790789 -0.58169695 3.67019396 -2.375 4.5 C-3.87160156 5.19609375 -3.87160156 5.19609375 -5.3984375 5.90625 C-8 7 -8 7 -10 7 C-9 4 -9 4 -7.0390625 2.76171875 C-5.84410156 2.22998047 -5.84410156 2.22998047 -4.625 1.6875 C-3.83351563 1.32011719 -3.04203125 0.95273437 -2.2265625 0.57421875 C-1.49179687 0.38472656 -0.75703125 0.19523437 0 0 Z " fill="#1355BD" transform="translate(497,397)"/>
<path d="M0 0 C0.66 0 1.32 0 2 0 C1.57405412 1.44096586 1.13373367 2.87768712 0.6875 4.3125 C0.44386719 5.11300781 0.20023438 5.91351562 -0.05078125 6.73828125 C-1.04182023 9.09964573 -2.08074943 10.33879993 -4 12 C-3.45660208 7.43545749 -2.20536179 4.0271824 0 0 Z " fill="#104BAF" transform="translate(718,577)"/>
<path d="M0 0 C1.58409994 0.11487748 3.16728963 0.24234508 4.75 0.375 C6.07257813 0.47941406 6.07257813 0.47941406 7.421875 0.5859375 C9.99066382 0.99850055 11.75841015 1.71160957 14 3 C8.87160006 4.81975482 4.82315618 2.8599099 0 1 C0 0.67 0 0.34 0 0 Z " fill="#1655B9" transform="translate(453,698)"/>
<path d="M0 0 C0.66 0.33 1.32 0.66 2 1 C-0.35468455 3.72647685 -2.5408417 4.98756342 -6 6 C-8.16015625 5.546875 -8.16015625 5.546875 -10 5 C-8.38007835 4.13624104 -6.75388139 3.28424146 -5.125 2.4375 C-4.22007812 1.96183594 -3.31515625 1.48617188 -2.3828125 0.99609375 C-1.20332031 0.50302734 -1.20332031 0.50302734 0 0 Z " fill="#0D4BB3" transform="translate(537,481)"/>
<path d="M0 0 C-1.62249941 0.83819158 -3.24808497 1.6704116 -4.875 2.5 C-6.23238281 3.19609375 -6.23238281 3.19609375 -7.6171875 3.90625 C-10 5 -10 5 -12 5 C-12 4.34 -12 3.68 -12 3 C-10.75823305 2.29773859 -9.50614401 1.61370891 -8.25 0.9375 C-7.20585938 0.36322266 -7.20585938 0.36322266 -6.140625 -0.22265625 C-3.63859372 -1.1312406 -2.4667645 -0.88336837 0 0 Z " fill="#0F4FB7" transform="translate(533,460)"/>
<path d="M0 0 C1.4589426 0.47730838 2.91713496 0.95691042 4.375 1.4375 C5.18710937 1.70433594 5.99921875 1.97117187 6.8359375 2.24609375 C9 3 9 3 11 4 C11 4.66 11 5.32 11 6 C9.5410574 5.52269162 8.08286504 5.04308958 6.625 4.5625 C5.81289063 4.29566406 5.00078125 4.02882813 4.1640625 3.75390625 C2 3 2 3 0 2 C0 1.34 0 0.68 0 0 Z " fill="#1052BB" transform="translate(484,455)"/>
<path d="M0 0 C0.66 0 1.32 0 2 0 C3.4375 2.1875 3.4375 2.1875 5 5 C5.556875 5.928125 6.11375 6.85625 6.6875 7.8125 C7.3371875 8.8953125 7.3371875 8.8953125 8 10 C4.20401451 8.50871999 2.28279601 6.34266559 0 3 C0 2.01 0 1.02 0 0 Z " fill="#124CAB" transform="translate(321,342)"/>
<path d="M0 0 C0.99 0.33 1.98 0.66 3 1 C-0.465 3.97 -0.465 3.97 -4 7 C-4.66 6.67 -5.32 6.34 -6 6 C-2.25 1.125 -2.25 1.125 0 0 Z " fill="#0C4AB1" transform="translate(658,657)"/>
<path d="M0 0 C-0.33 0.99 -0.66 1.98 -1 3 C-4.3 2.67 -7.6 2.34 -11 2 C-11 1.34 -11 0.68 -11 0 C-6.98195309 -0.84098656 -3.98196457 -1.05404945 0 0 Z " fill="#094FBD" transform="translate(437,326)"/>
<path d="M0 0 C3.55780196 0.60990891 6.6828589 1.5783681 10 3 C9.67 3.99 9.34 4.98 9 6 C7.68397477 5.38245741 6.37226444 4.75571258 5.0625 4.125 C4.33160156 3.77695312 3.60070312 3.42890625 2.84765625 3.0703125 C1 2 1 2 0 0 Z " fill="#0D50BB" transform="translate(473,584)"/>
<path d="M0 0 C0.33 0 0.66 0 1 0 C0.28571429 8.57142857 0.28571429 8.57142857 -3 12 C-2.14285714 3.42857143 -2.14285714 3.42857143 0 0 Z " fill="#114FB2" transform="translate(749,575)"/>
<path d="M0 0 C-1.49097658 3.7952131 -3.75700849 5.61042731 -7 8 C-7.66 7.67 -8.32 7.34 -9 7 C-7.88121617 5.82737096 -6.75476949 4.66204862 -5.625 3.5 C-4.68527344 2.52546875 -4.68527344 2.52546875 -3.7265625 1.53125 C-2 0 -2 0 0 0 Z " fill="#0F4AB0" transform="translate(380,310)"/>
<path d="M0 0 C4.24480464 -0.33292585 6.35542625 -0.43885872 9.9375 2 C10.618125 2.66 11.29875 3.32 12 4 C7.80530429 3.40075776 3.99000166 2.42500059 0 1 C0 0.67 0 0.34 0 0 Z " fill="#0D44AB" transform="translate(582,245)"/>
<path d="M0 0 C4.67461851 -0.32613618 7.16674383 0.29417212 11 3 C7.59068103 4.13643966 6.99664544 3.86747764 3.8125 2.5625 C3.09707031 2.27503906 2.38164062 1.98757813 1.64453125 1.69140625 C1.10183594 1.46324219 0.55914062 1.23507812 0 1 C0 0.67 0 0.34 0 0 Z " fill="#0D43AD" transform="translate(437,693)"/>
<path d="M0 0 C3.7952131 1.49097658 5.61042731 3.75700849 8 7 C4.65980694 6.40353695 2.49529367 5.31705841 0 3 C0 2.01 0 1.02 0 0 Z " fill="#0D46A9" transform="translate(350,671)"/>
<path d="M0 0 C-1.28913487 0.67154933 -2.58140204 1.33708859 -3.875 2 C-4.59429688 2.37125 -5.31359375 2.7425 -6.0546875 3.125 C-8 4 -8 4 -10 4 C-10 3.34 -10 2.68 -10 2 C-4.10714286 -1.34821429 -4.10714286 -1.34821429 0 0 Z " fill="#0F4DB6" transform="translate(545,588)"/>
<path d="M0 0 C0.66 0.33 1.32 0.66 2 1 C0.694761 3.61047801 -0.35826574 3.68066423 -3.0625 4.625 C-3.79597656 4.88539063 -4.52945312 5.14578125 -5.28515625 5.4140625 C-5.85105469 5.60742188 -6.41695313 5.80078125 -7 6 C-7.66 5.34 -8.32 4.68 -9 4 C-7.54618103 3.30300448 -6.08677047 2.61766134 -4.625 1.9375 C-3.40683594 1.36322266 -3.40683594 1.36322266 -2.1640625 0.77734375 C-1.44992187 0.52082031 -0.73578125 0.26429688 0 0 Z " fill="#1257BD" transform="translate(484,377)"/>
<path d="M0 0 C2.61500768 2.36595933 4.38999603 4.86049226 6 8 C5.67 8.66 5.34 9.32 5 10 C1.32769295 6.92000054 0.43197635 4.7517398 0 0 Z " fill="#114FB3" transform="translate(726,354)"/>
<path d="M0 0 C0.33 0 0.66 0 1 0 C0.91253716 1.43861294 0.80434652 2.87597508 0.6875 4.3125 C0.62949219 5.11300781 0.57148438 5.91351563 0.51171875 6.73828125 C-0.08206694 9.36272334 -0.95780294 10.30820672 -3 12 C-2.88541307 10.56163249 -2.75790884 9.12429034 -2.625 7.6875 C-2.55539062 6.88699219 -2.48578125 6.08648437 -2.4140625 5.26171875 C-2 3 -2 3 0 0 Z " fill="#185DC2" transform="translate(442,336)"/>
<path d="M0 0 C1.4391134 0.28359887 2.87625518 0.57721399 4.3125 0.875 C5.11300781 1.03742187 5.91351563 1.19984375 6.73828125 1.3671875 C9 2 9 2 12 4 C7.75519536 4.33292585 5.64457375 4.43885872 2.0625 2 C1.381875 1.34 0.70125 0.68 0 0 Z " fill="#0C3F9F" transform="translate(435,721)"/>
<path d="M0 0 C3.99500618 1.3697164 6.80009492 3.25722422 10 6 C6.38238619 5.67112602 4.44334967 5.37334709 1.625 3 C0 1 0 1 0 0 Z " fill="#0C44A6" transform="translate(383,696)"/>
<path d="M0 0 C4.455 2.97 4.455 2.97 9 6 C8.01 6.33 7.02 6.66 6 7 C2.8125 5.25 2.8125 5.25 0 3 C0 2.01 0 1.02 0 0 Z " fill="#0C44A8" transform="translate(361,680)"/>
<path d="M0 0 C0.33 0.99 0.66 1.98 1 3 C-0.62339805 4.70884005 -2.29319053 6.37446717 -4 8 C-4.66 8 -5.32 8 -6 8 C-4.55746343 4.63408134 -2.66735273 2.48952921 0 0 Z " fill="#1048AA" transform="translate(703,653)"/>
<path d="M0 0 C1.98 0.66 3.96 1.32 6 2 C3.66785852 3.20628008 1.50357861 4.1654738 -1 5 C-1.66 4.34 -2.32 3.68 -3 3 C-2.34 3 -1.68 3 -1 3 C-0.67 2.01 -0.34 1.02 0 0 Z " fill="#115DC9" transform="translate(590,429)"/>
<path d="M0 0 C3.59391114 1.33488128 6.75490696 2.96022723 10 5 C8.3125 5.6875 8.3125 5.6875 6 6 C3.3125 4.75 3.3125 4.75 1 3 C0.67 2.01 0.34 1.02 0 0 Z " fill="#0C48AF" transform="translate(623,291)"/>
<path d="M0 0 C0 3 0 3 -1.3125 4.38671875 C-2.875 5.59114583 -4.4375 6.79557292 -6 8 C-5.65120368 4.74456771 -4.97866739 3.98126893 -2.4375 1.75 C-1.633125 1.1725 -0.82875 0.595 0 0 Z " fill="#0B44AD" transform="translate(684,633)"/>
<path d="M0 0 C0.66 0.33 1.32 0.66 2 1 C-0.06756277 3.7972908 -1.14440371 4.02692273 -4.6875 4.6875 C-5.780625 4.790625 -6.87375 4.89375 -8 5 C-5.45378681 2.99940392 -3.01962385 1.20784954 0 0 Z " fill="#0D4AB2" transform="translate(554,473)"/>
<path d="M0 0 C0.99 0.33 1.98 0.66 3 1 C1.35 2.65 -0.3 4.3 -2 6 C-2.33 5.01 -2.66 4.02 -3 3 C-2.01 2.01 -1.02 1.02 0 0 Z " fill="#0E4EB5" transform="translate(674,642)"/>
<path d="M0 0 C0.33 0.66 0.66 1.32 1 2 C0.22265625 3.7265625 0.22265625 3.7265625 -0.9375 5.625 C-1.618125 6.73875 -2.29875 7.8525 -3 9 C-3.66 8.01 -4.32 7.02 -5 6 C-2.25 1.125 -2.25 1.125 0 0 Z " fill="#1351B3" transform="translate(733,612)"/>
<path d="M0 0 C0.66 0.33 1.32 0.66 2 1 C-0.75 3.0625 -0.75 3.0625 -4 5 C-6.203125 4.62109375 -6.203125 4.62109375 -8 4 C-6.71349294 3.30289269 -5.42059335 2.61757124 -4.125 1.9375 C-3.40570313 1.55464844 -2.68640625 1.17179687 -1.9453125 0.77734375 C-1.30335938 0.52082031 -0.66140625 0.26429688 0 0 Z " fill="#0C47AE" transform="translate(469,410)"/>
<path d="M0 0 C0.66 0.33 1.32 0.66 2 1 C-0.39509338 3.89932357 -2.31245243 4.50168276 -6 5 C-6 4.34 -6 3.68 -6 3 C-4.03533587 1.93224776 -2.03144641 0.93446535 0 0 Z " fill="#1356BD" transform="translate(427,403)"/>
<path d="M0 0 C2.66735273 2.48952921 4.55746343 4.63408134 6 8 C5.01 8 4.02 8 3 8 C0.19744677 5.0936485 0 4.21174952 0 0 Z " fill="#0F51B7" transform="translate(715,337)"/>
<path d="M0 0 C3.35595828 0.59927826 5.37801226 1.84622436 8 4 C7.67 4.99 7.34 5.98 7 7 C5.83040013 6.02433888 4.66438823 5.044375 3.5 4.0625 C2.8503125 3.51722656 2.200625 2.97195313 1.53125 2.41015625 C1.0259375 1.94480469 0.520625 1.47945313 0 1 C0 0.67 0 0.34 0 0 Z " fill="#0C42A8" transform="translate(664,286)"/>
<path d="M0 0 C0 0.66 0 1.32 0 2 C1.32 2.33 2.64 2.66 4 3 C-2.93 2.505 -2.93 2.505 -10 2 C-10 1.67 -10 1.34 -10 1 C-2.25 0 -2.25 0 0 0 Z " fill="#226BC9" transform="translate(548,264)"/>
<path d="M0 0 C3.375 0.3125 3.375 0.3125 7 1 C7.66 1.99 8.32 2.98 9 4 C5.17902761 3.46930939 2.93828597 2.50298434 0 0 Z " fill="#1047AF" transform="translate(425,688)"/>
<path d="M0 0 C0 0.66 0 1.32 0 2 C-3.13498292 3.85776765 -5.37471432 4.20140476 -9 4 C-3.7826087 0 -3.7826087 0 0 0 Z " fill="#1049AE" transform="translate(535,617)"/>
<path d="M0 0 C2.50298434 2.93828597 3.46930939 5.17902761 4 9 C3.01 8.67 2.02 8.34 1 8 C0.67 5.36 0.34 2.72 0 0 Z " fill="#0D3C9A" transform="translate(725,418)"/>
<path d="M0 0 C1.9375 0.625 1.9375 0.625 4 2 C4.75 5.125 4.75 5.125 5 8 C2.74754119 5.31158141 1.11786042 3.35358125 0 0 Z " fill="#1353B2" transform="translate(696,360)"/>
<path d="M0 0 C1.98 0 3.96 0 6 0 C6 0.33 6 0.66 6 1 C4.02 1 2.04 1 0 1 C0 0.67 0 0.34 0 0 Z " fill="#0F67D5" transform="translate(520,704)"/>
<path d="M0 0 C1.98 0 3.96 0 6 0 C6 0.33 6 0.66 6 1 C4.02 1 2.04 1 0 1 C0 0.67 0 0.34 0 0 Z " fill="#0E65D2" transform="translate(513,704)"/>
<path d="M0 0 C1.98 0.99 1.98 0.99 4 2 C2.68 1.67 1.36 1.34 0 1 C0 0.67 0 0.34 0 0 Z " fill="#135CC1" transform="translate(419,718)"/>
<path d="M0 0 C3 1 3 1 3 1 Z " fill="#125BC2" transform="translate(403,711)"/>
<path d="" fill="#0F66D7" transform="translate(0,0)"/>
<path d="" fill="#165CBE" transform="translate(0,0)"/>
<path d="M0 0 C3 1 3 1 3 1 Z " fill="#0F61D1" transform="translate(616,291)"/>
<path d="M0 0 C3 1 3 1 3 1 Z " fill="#1766CC" transform="translate(512,232)"/>
<path d="M0 0 C2 1 2 1 2 1 Z " fill="#105BC4" transform="translate(475,734)"/>
<path d="M0 0 C2 1 2 1 2 1 Z " fill="#125DC3" transform="translate(432,725)"/>
<path d="M0 0 C2 1 2 1 2 1 Z " fill="#0D63D3" transform="translate(507,704)"/>
<path d="" fill="#145DC2" transform="translate(0,0)"/>
<path d="M0 0 C2 1 2 1 2 1 Z " fill="#145FC6" transform="translate(288,594)"/>
<path d="" fill="#1162CC" transform="translate(0,0)"/>
<path d="" fill="#1368D7" transform="translate(0,0)"/>
<path d="" fill="#1267D7" transform="translate(0,0)"/>
<path d="" fill="#1067D8" transform="translate(0,0)"/>
<path d="M0 0 C2 1 2 1 2 1 Z " fill="#0F63D5" transform="translate(420,455)"/>
<path d="" fill="#0E61CC" transform="translate(0,0)"/>
<path d="M0 0 C2 1 2 1 2 1 Z " fill="#1062CF" transform="translate(412,408)"/>
<path d="M0 0 C2 1 2 1 2 1 Z " fill="#1166D8" transform="translate(405,322)"/>
<path d="M0 0 C2 1 2 1 2 1 Z " fill="#0F60D0" transform="translate(601,283)"/>
<path d="M0 0 C2 1 2 1 2 1 Z " fill="#1163D2" transform="translate(436,279)"/>
<path d="M0 0 C2 1 2 1 2 1 Z " fill="#1364D2" transform="translate(467,270)"/>
<path d="M0 0 C2 1 2 1 2 1 Z " fill="#1368D3" transform="translate(472,269)"/>
<path d="M0 0 C2 1 2 1 2 1 Z " fill="#1864CA" transform="translate(504,232)"/>
<path d="" fill="#125EC3" transform="translate(0,0)"/>
<path d="" fill="#125CC3" transform="translate(0,0)"/>
<path d="" fill="#115DC3" transform="translate(0,0)"/>
<path d="" fill="#145CC4" transform="translate(0,0)"/>
<path d="" fill="#155CC4" transform="translate(0,0)"/>
<path d="" fill="#115AC3" transform="translate(0,0)"/>
<path d="" fill="#1155BC" transform="translate(0,0)"/>
<path d="" fill="#155DC5" transform="translate(0,0)"/>
<path d="" fill="#155FC4" transform="translate(0,0)"/>
<path d="" fill="#155DC1" transform="translate(0,0)"/>
<path d="" fill="#115DC6" transform="translate(0,0)"/>
<path d="" fill="#0F61CF" transform="translate(0,0)"/>
<path d="" fill="#0C5CCC" transform="translate(0,0)"/>
<path d="" fill="#1362D0" transform="translate(0,0)"/>
<path d="" fill="#1164D0" transform="translate(0,0)"/>
<path d="" fill="#1262CD" transform="translate(0,0)"/>
<path d="" fill="#135BC1" transform="translate(0,0)"/>
<path d="" fill="#115BC1" transform="translate(0,0)"/>
<path d="" fill="#135BC3" transform="translate(0,0)"/>
<path d="" fill="#185CC5" transform="translate(0,0)"/>
<path d="" fill="#0F62CE" transform="translate(0,0)"/>
<path d="" fill="#165EC5" transform="translate(0,0)"/>
<path d="" fill="#1360CA" transform="translate(0,0)"/>
<path d="" fill="#0E5FCD" transform="translate(0,0)"/>
<path d="" fill="#1061CF" transform="translate(0,0)"/>
<path d="" fill="#0D5FCE" transform="translate(0,0)"/>
<path d="" fill="#135DBF" transform="translate(0,0)"/>
<path d="" fill="#125CC2" transform="translate(0,0)"/>
<path d="" fill="#135CC1" transform="translate(0,0)"/>
<path d="" fill="#1868D3" transform="translate(0,0)"/>
<path d="" fill="#155BC4" transform="translate(0,0)"/>
<path d="" fill="#1565D2" transform="translate(0,0)"/>
<path d="" fill="#1561C7" transform="translate(0,0)"/>
<path d="" fill="#1062CE" transform="translate(0,0)"/>
<path d="" fill="#1265D1" transform="translate(0,0)"/>
<path d="" fill="#115DC7" transform="translate(0,0)"/>
<path d="" fill="#135DC4" transform="translate(0,0)"/>
<path d="" fill="#125DC4" transform="translate(0,0)"/>
<path d="" fill="#1362CF" transform="translate(0,0)"/>
<path d="" fill="#1163D3" transform="translate(0,0)"/>
<path d="" fill="#1160D0" transform="translate(0,0)"/>
<path d="" fill="#1062D2" transform="translate(0,0)"/>
<path d="" fill="#1464D2" transform="translate(0,0)"/>
<path d="" fill="#1165D1" transform="translate(0,0)"/>
<path d="" fill="#0D60D0" transform="translate(0,0)"/>
<path d="" fill="#135FC5" transform="translate(0,0)"/>
<path d="" fill="#0F65D4" transform="translate(0,0)"/>
<path d="" fill="#1265D3" transform="translate(0,0)"/>
<path d="" fill="#145FC6" transform="translate(0,0)"/>
<path d="" fill="#1365D2" transform="translate(0,0)"/>
<path d="" fill="#1266CE" transform="translate(0,0)"/>
<path d="" fill="#1167D7" transform="translate(0,0)"/>
<path d="" fill="#1566D3" transform="translate(0,0)"/>
<path d="" fill="#0F62D3" transform="translate(0,0)"/>
<path d="" fill="#1463CF" transform="translate(0,0)"/>
<path d="" fill="#1063D4" transform="translate(0,0)"/>
<path d="" fill="#1563CD" transform="translate(0,0)"/>
<path d="" fill="#0F62D1" transform="translate(0,0)"/>
<path d="" fill="#105FD1" transform="translate(0,0)"/>
<path d="" fill="#185EC4" transform="translate(0,0)"/>
<path d="" fill="#1367D2" transform="translate(0,0)"/>
<path d="" fill="#165EC1" transform="translate(0,0)"/>
<path d="" fill="#0E62D1" transform="translate(0,0)"/>
<path d="" fill="#1365D0" transform="translate(0,0)"/>
<path d="" fill="#1569DA" transform="translate(0,0)"/>
<path d="" fill="#1667D3" transform="translate(0,0)"/>
<path d="" fill="#1664CF" transform="translate(0,0)"/>
<path d="" fill="#1166D8" transform="translate(0,0)"/>
<path d="" fill="#1267D4" transform="translate(0,0)"/>
<path d="" fill="#165EC1" transform="translate(0,0)"/>
<path d="" fill="#1462CB" transform="translate(0,0)"/>
<path d="" fill="#1168D5" transform="translate(0,0)"/>
<path d="" fill="#1166D5" transform="translate(0,0)"/>
<path d="" fill="#1066D5" transform="translate(0,0)"/>
<path d="" fill="#1666D3" transform="translate(0,0)"/>
<path d="" fill="#0E63D2" transform="translate(0,0)"/>
<path d="" fill="#1365D5" transform="translate(0,0)"/>
<path d="" fill="#1066D7" transform="translate(0,0)"/>
<path d="" fill="#0D5FD0" transform="translate(0,0)"/>
<path d="" fill="#1167D6" transform="translate(0,0)"/>
<path d="" fill="#1361CE" transform="translate(0,0)"/>
<path d="" fill="#1367D6" transform="translate(0,0)"/>
<path d="" fill="#0B61D3" transform="translate(0,0)"/>
<path d="" fill="#1365D5" transform="translate(0,0)"/>
<path d="" fill="#1267D6" transform="translate(0,0)"/>
<path d="" fill="#0E62D1" transform="translate(0,0)"/>
<path d="" fill="#0C64D4" transform="translate(0,0)"/>
<path d="" fill="#1367D7" transform="translate(0,0)"/>
<path d="" fill="#0C5FCE" transform="translate(0,0)"/>
<path d="" fill="#1667D1" transform="translate(0,0)"/>
<path d="" fill="#1067D5" transform="translate(0,0)"/>
<path d="" fill="#1065D6" transform="translate(0,0)"/>
<path d="" fill="#0C5DCD" transform="translate(0,0)"/>
<path d="" fill="#1768D3" transform="translate(0,0)"/>
<path d="" fill="#1164D3" transform="translate(0,0)"/>
<path d="" fill="#1064D0" transform="translate(0,0)"/>
<path d="" fill="#0F65D7" transform="translate(0,0)"/>
<path d="" fill="#0F62D1" transform="translate(0,0)"/>
<path d="" fill="#1162D3" transform="translate(0,0)"/>
<path d="" fill="#0F66D3" transform="translate(0,0)"/>
<path d="" fill="#1665D1" transform="translate(0,0)"/>
<path d="" fill="#1368D9" transform="translate(0,0)"/>
<path d="" fill="#0F66D6" transform="translate(0,0)"/>
<path d="" fill="#1565D4" transform="translate(0,0)"/>
<path d="" fill="#1169D8" transform="translate(0,0)"/>
<path d="" fill="#0F60CC" transform="translate(0,0)"/>
<path d="" fill="#1265CF" transform="translate(0,0)"/>
<path d="" fill="#1462CC" transform="translate(0,0)"/>
<path d="" fill="#0F65D7" transform="translate(0,0)"/>
<path d="" fill="#1368D2" transform="translate(0,0)"/>
<path d="" fill="#1266D8" transform="translate(0,0)"/>
<path d="" fill="#1365D4" transform="translate(0,0)"/>
<path d="" fill="#1162CE" transform="translate(0,0)"/>
<path d="" fill="#1161CC" transform="translate(0,0)"/>
<path d="" fill="#0F65D1" transform="translate(0,0)"/>
<path d="" fill="#1264CF" transform="translate(0,0)"/>
<path d="" fill="#1166D1" transform="translate(0,0)"/>
<path d="" fill="#0E62D1" transform="translate(0,0)"/>
<path d="" fill="#1062CE" transform="translate(0,0)"/>
<path d="" fill="#1261D0" transform="translate(0,0)"/>
<path d="" fill="#0C61D0" transform="translate(0,0)"/>
<path d="" fill="#1164D1" transform="translate(0,0)"/>
<path d="" fill="#1265D3" transform="translate(0,0)"/>
<path d="" fill="#1165CD" transform="translate(0,0)"/>
<path d="" fill="#135EC5" transform="translate(0,0)"/>
<path d="" fill="#1163CE" transform="translate(0,0)"/>
<path d="" fill="#1463D0" transform="translate(0,0)"/>
<path d="" fill="#1465CF" transform="translate(0,0)"/>
<path d="" fill="#1461D0" transform="translate(0,0)"/>
<path d="" fill="#1263CC" transform="translate(0,0)"/>
<path d="" fill="#1264D1" transform="translate(0,0)"/>
<path d="" fill="#1261CF" transform="translate(0,0)"/>
<path d="" fill="#1261CE" transform="translate(0,0)"/>
<path d="" fill="#1156BB" transform="translate(0,0)"/>
<path d="" fill="#165BBE" transform="translate(0,0)"/>
<path d="" fill="#1166D8" transform="translate(0,0)"/>
<path d="" fill="#1365D7" transform="translate(0,0)"/>
<path d="" fill="#1366D9" transform="translate(0,0)"/>
<path d="" fill="#1163D6" transform="translate(0,0)"/>
<path d="" fill="#1069D8" transform="translate(0,0)"/>
<path d="" fill="#115EC4" transform="translate(0,0)"/>
<path d="" fill="#125EC3" transform="translate(0,0)"/>
<path d="" fill="#1263CF" transform="translate(0,0)"/>
<path d="" fill="#1061D3" transform="translate(0,0)"/>
<path d="" fill="#0E5FCC" transform="translate(0,0)"/>
<path d="" fill="#1162D4" transform="translate(0,0)"/>
<path d="" fill="#1263D1" transform="translate(0,0)"/>
<path d="" fill="#0D5FCD" transform="translate(0,0)"/>
<path d="" fill="#165FC4" transform="translate(0,0)"/>
<path d="" fill="#1364D4" transform="translate(0,0)"/>
<path d="" fill="#1262D3" transform="translate(0,0)"/>
<path d="" fill="#1465D4" transform="translate(0,0)"/>
<path d="" fill="#1669D4" transform="translate(0,0)"/>
<path d="" fill="#1263D4" transform="translate(0,0)"/>
<path d="" fill="#1767D3" transform="translate(0,0)"/>
<path d="" fill="#1366D0" transform="translate(0,0)"/>
<path d="" fill="#0F5DC6" transform="translate(0,0)"/>
<path d="" fill="#0F62C7" transform="translate(0,0)"/>
<path d="" fill="#125EC8" transform="translate(0,0)"/>
<path d="" fill="#1256BD" transform="translate(0,0)"/>
<path d="" fill="#1463CA" transform="translate(0,0)"/>
<path d="" fill="#125FC6" transform="translate(0,0)"/>
<path d="" fill="#1663CC" transform="translate(0,0)"/>
<path d="" fill="#1562CB" transform="translate(0,0)"/>
<path d="" fill="#1360C7" transform="translate(0,0)"/>
<path d="" fill="#1461C8" transform="translate(0,0)"/>
<path d="" fill="#1363CC" transform="translate(0,0)"/>
<path d="" fill="#1663C9" transform="translate(0,0)"/>
<path d="" fill="#1763C7" transform="translate(0,0)"/>
<path d="" fill="#1765CA" transform="translate(0,0)"/>
<path d="" fill="#1462C9" transform="translate(0,0)"/>
<path d="" fill="#1864CA" transform="translate(0,0)"/>
<path d="" fill="#1560C5" transform="translate(0,0)"/>
<path d="" fill="#1663CA" transform="translate(0,0)"/>
<path d="" fill="#1660C2" transform="translate(0,0)"/>
<path d="" fill="#195CBC" transform="translate(0,0)"/>
</svg>
